<?xml version="1.0" encoding="UTF-8" standalone="no"?><svg xmlns="http://www.w3.org/2000/svg" xmlns:xlink="http://www.w3.org/1999/xlink" contentScriptType="application/ecmascript" contentStyleType="text/css" height="1535px" preserveAspectRatio="none" style="width:796px;height:1535px;" version="1.1" viewBox="0 0 796 1535" width="796px" zoomAndPan="magnify"><defs><filter height="300%" id="f11r6xhd72pgeh" width="300%" x="-1" y="-1"><feGaussianBlur result="blurOut" stdDeviation="2.0"/><feColorMatrix in="blurOut" result="blurOut2" type="matrix" values="0 0 0 0 0 0 0 0 0 0 0 0 0 0 0 0 0 0 .4 0"/><feOffset dx="4.0" dy="4.0" in="blurOut2" result="blurOut3"/><feBlend in="SourceGraphic" in2="blurOut3" mode="normal"/></filter></defs><g><!--MD5=[f30e481a8a2265658dfa7bb4ce372bac]
cluster WPFLibrary.Behaviors--><polygon fill="#FFFFFF" filter="url(#f11r6xhd72pgeh)" points="16,130,177,130,184,153.6094,779,153.6094,779,1528,16,1528,16,130" style="stroke:#000000;stroke-width:1.5;"/><line style="stroke:#000000;stroke-width:1.5;" x1="16" x2="184" y1="153.6094" y2="153.6094"/><text fill="#000000" font-family="sans-serif" font-size="14" font-weight="bold" lengthAdjust="spacingAndGlyphs" textLength="155" x="20" y="146.5332">WPFLibrary.Behaviors</text><!--MD5=[8c44c800f3ba61fb2ed1a48dad095105]
cluster ___Common___--><polygon fill="#FFFFFF" filter="url(#f11r6xhd72pgeh)" points="306,6,389,6,396,29.6094,418,29.6094,418,106,306,106,306,6" style="stroke:#000000;stroke-width:1.5;"/><line style="stroke:#000000;stroke-width:1.5;" x1="306" x2="396" y1="29.6094" y2="29.6094"/><text fill="#000000" font-family="sans-serif" font-size="14" font-weight="bold" lengthAdjust="spacingAndGlyphs" text-decoration="underline" textLength="69" x="310" y="22.5332">_Common</text><text fill="#000000" font-family="sans-serif" font-size="14" font-weight="bold" lengthAdjust="spacingAndGlyphs" textLength="8" x="379" y="22.5332">_</text><!--MD5=[510567e55c33e5259fc5072e964c5ed8]
class WPFLibrary.Behaviors.DraggableListBoxItemBehavior--><rect codeLine="3" fill="#FEFECE" filter="url(#f11r6xhd72pgeh)" height="48" id="WPFLibrary.Behaviors.DraggableListBoxItemBehavior" style="stroke:#A80036;stroke-width:1.5;" width="213" x="200.5" y="1431.5"/><ellipse cx="215.5" cy="1447.5" fill="#ADD1B2" rx="11" ry="11" style="stroke:#A80036;stroke-width:1.0;"/><path d="M218.2656,1443.375 Q218.4219,1443.1563 218.6094,1443.0469 Q218.7969,1442.9375 219.0156,1442.9375 Q219.3906,1442.9375 219.625,1443.2031 Q219.8594,1443.4531 219.8594,1444.0625 L219.8594,1445.5156 Q219.8594,1446.125 219.625,1446.3906 Q219.3906,1446.6563 219.0156,1446.6563 Q218.6719,1446.6563 218.4688,1446.4531 Q218.2656,1446.2656 218.1563,1445.75 Q218.1094,1445.3906 217.9219,1445.2031 Q217.5938,1444.8281 216.9844,1444.6094 Q216.375,1444.3906 215.75,1444.3906 Q214.9844,1444.3906 214.3438,1444.7188 Q213.7188,1445.0469 213.2188,1445.7969 Q212.7344,1446.5469 212.7344,1447.5781 L212.7344,1448.6719 Q212.7344,1449.9063 213.625,1450.7344 Q214.5156,1451.5469 216.1094,1451.5469 Q217.0469,1451.5469 217.7031,1451.2969 Q218.0938,1451.1406 218.5156,1450.7031 Q218.7813,1450.4375 218.9219,1450.3594 Q219.0781,1450.2813 219.2813,1450.2813 Q219.6094,1450.2813 219.8594,1450.5469 Q220.125,1450.7969 220.125,1451.1406 Q220.125,1451.4844 219.7813,1451.8906 Q219.2813,1452.4688 218.4844,1452.7969 Q217.4063,1453.25 216.1094,1453.25 Q214.5938,1453.25 213.3906,1452.625 Q212.4063,1452.125 211.7188,1451.0625 Q211.0313,1449.9844 211.0313,1448.7031 L211.0313,1447.5469 Q211.0313,1446.2188 211.6406,1445.0781 Q212.2656,1443.9219 213.3594,1443.3125 Q214.4531,1442.6875 215.6875,1442.6875 Q216.4219,1442.6875 217.0625,1442.8594 Q217.7188,1443.0156 218.2656,1443.375 Z " fill="#000000"/><ellipse cx="234.5" cy="1447" fill="#84BE84" rx="3" ry="3" style="stroke:#038048;stroke-width:1.0;"/><text fill="#000000" font-family="sans-serif" font-size="12" lengthAdjust="spacingAndGlyphs" textLength="170" x="240.5" y="1452.4102">DraggableListBoxItemBehavior</text><line style="stroke:#A80036;stroke-width:1.5;" x1="201.5" x2="412.5" y1="1463.5" y2="1463.5"/><line style="stroke:#A80036;stroke-width:1.5;" x1="201.5" x2="412.5" y1="1471.5" y2="1471.5"/><!--MD5=[6af14a454e8b8179117a7a49b1f8c3cc]
class WPFLibrary.Behaviors.BaseDragAndDropContainerItemBehavior--><rect codeLine="16" fill="#FEFECE" filter="url(#f11r6xhd72pgeh)" height="1172.7109" id="WPFLibrary.Behaviors.BaseDragAndDropContainerItemBehavior" style="stroke:#A80036;stroke-width:1.5;" width="417" x="345.5" y="166"/><ellipse cx="423.75" cy="182" fill="#ADD1B2" rx="11" ry="11" style="stroke:#A80036;stroke-width:1.0;"/><path d="M426.5156,177.875 Q426.6719,177.6563 426.8594,177.5469 Q427.0469,177.4375 427.2656,177.4375 Q427.6406,177.4375 427.875,177.7031 Q428.1094,177.9531 428.1094,178.5625 L428.1094,180.0156 Q428.1094,180.625 427.875,180.8906 Q427.6406,181.1563 427.2656,181.1563 Q426.9219,181.1563 426.7188,180.9531 Q426.5156,180.7656 426.4063,180.25 Q426.3594,179.8906 426.1719,179.7031 Q425.8438,179.3281 425.2344,179.1094 Q424.625,178.8906 424,178.8906 Q423.2344,178.8906 422.5938,179.2188 Q421.9688,179.5469 421.4688,180.2969 Q420.9844,181.0469 420.9844,182.0781 L420.9844,183.1719 Q420.9844,184.4063 421.875,185.2344 Q422.7656,186.0469 424.3594,186.0469 Q425.2969,186.0469 425.9531,185.7969 Q426.3438,185.6406 426.7656,185.2031 Q427.0313,184.9375 427.1719,184.8594 Q427.3281,184.7813 427.5313,184.7813 Q427.8594,184.7813 428.1094,185.0469 Q428.375,185.2969 428.375,185.6406 Q428.375,185.9844 428.0313,186.3906 Q427.5313,186.9688 426.7344,187.2969 Q425.6563,187.75 424.3594,187.75 Q422.8438,187.75 421.6406,187.125 Q420.6563,186.625 419.9688,185.5625 Q419.2813,184.4844 419.2813,183.2031 L419.2813,182.0469 Q419.2813,180.7188 419.8906,179.5781 Q420.5156,178.4219 421.6094,177.8125 Q422.7031,177.1875 423.9375,177.1875 Q424.6719,177.1875 425.3125,177.3594 Q425.9688,177.5156 426.5156,177.875 Z " fill="#000000"/><ellipse cx="449.25" cy="181.5" fill="#84BE84" rx="3" ry="3" style="stroke:#038048;stroke-width:1.0;"/><text fill="#000000" font-family="sans-serif" font-size="12" lengthAdjust="spacingAndGlyphs" textLength="230" x="455.25" y="186.9102">BaseDragAndDropContainerItemBehavior</text><rect fill="#FFFFFF" height="17.0938" style="stroke:#000000;stroke-width:1.0;stroke-dasharray:2.0,2.0;" width="9" x="756.5" y="163"/><text fill="#000000" font-family="sans-serif" font-size="12" font-style="italic" lengthAdjust="spacingAndGlyphs" textLength="7" x="757.5" y="176.457">T</text><line style="stroke:#A80036;stroke-width:1.5;" x1="346.5" x2="761.5" y1="198" y2="198"/><ellipse cx="356.5" cy="226.8359" fill="#84BE84" rx="3" ry="3" style="stroke:#038048;stroke-width:1.0;"/><text fill="#000000" font-family="sans-serif" font-size="11" lengthAdjust="spacingAndGlyphs" textLength="238" x="365.5" y="231.2549">public BaseDragAndDropContainerItemBehavior()</text><text fill="#000000" font-family="sans-serif" font-size="11" lengthAdjust="spacingAndGlyphs" textLength="0" x="368.5" y="245.0908"/><polygon fill="#FFFF44" points="356.5,249.5078,360.5,253.5078,356.5,257.5078,352.5,253.5078" style="stroke:#B38D22;stroke-width:1.0;"/><text fill="#000000" font-family="sans-serif" font-size="11" lengthAdjust="spacingAndGlyphs" textLength="89" x="365.5" y="258.9268">void OnAttached()</text><text fill="#000000" font-family="sans-serif" font-size="11" lengthAdjust="spacingAndGlyphs" textLength="0" x="368.5" y="272.7627"/><polygon fill="#FFFF44" points="356.5,277.1797,360.5,281.1797,356.5,285.1797,352.5,281.1797" style="stroke:#B38D22;stroke-width:1.0;"/><text fill="#000000" font-family="sans-serif" font-size="11" lengthAdjust="spacingAndGlyphs" textLength="93" x="365.5" y="286.5986">void OnDetaching()</text><text fill="#000000" font-family="sans-serif" font-size="11" lengthAdjust="spacingAndGlyphs" textLength="0" x="368.5" y="300.4346"/><rect fill="#F24D5C" height="6" style="stroke:#C82930;stroke-width:1.0;" width="6" x="353.5" y="306.8516"/><text fill="#000000" font-family="sans-serif" font-size="11" lengthAdjust="spacingAndGlyphs" textLength="154" x="365.5" y="314.2705">void UpdateItemContainerStyle()</text><text fill="#000000" font-family="sans-serif" font-size="11" lengthAdjust="spacingAndGlyphs" textLength="0" x="368.5" y="328.1064"/><rect fill="#F24D5C" height="6" style="stroke:#C82930;stroke-width:1.0;" width="6" x="353.5" y="334.5234"/><text fill="#000000" font-family="sans-serif" font-size="11" lengthAdjust="spacingAndGlyphs" textLength="391" x="365.5" y="341.9424">void OnPreviewMouseLeftButtonDown(object sender, MouseButtonEventArgs e)</text><text fill="#000000" font-family="sans-serif" font-size="11" lengthAdjust="spacingAndGlyphs" textLength="0" x="368.5" y="355.7783"/><rect fill="#F24D5C" height="6" style="stroke:#C82930;stroke-width:1.0;" width="6" x="353.5" y="362.1953"/><text fill="#000000" font-family="sans-serif" font-size="11" lengthAdjust="spacingAndGlyphs" textLength="307" x="365.5" y="369.6143">void OnPreviewMouseMove(object sender, MouseEventArgs e)</text><text fill="#000000" font-family="sans-serif" font-size="11" lengthAdjust="spacingAndGlyphs" textLength="0" x="368.5" y="383.4502"/><rect fill="#F24D5C" height="6" style="stroke:#C82930;stroke-width:1.0;" width="6" x="353.5" y="389.8672"/><text fill="#000000" font-family="sans-serif" font-size="11" lengthAdjust="spacingAndGlyphs" textLength="248" x="365.5" y="397.2861">void OnDragEnter(object sender, DragEventArgs e)</text><text fill="#000000" font-family="sans-serif" font-size="11" lengthAdjust="spacingAndGlyphs" textLength="0" x="368.5" y="411.1221"/><rect fill="#F24D5C" height="6" style="stroke:#C82930;stroke-width:1.0;" width="6" x="353.5" y="417.5391"/><text fill="#000000" font-family="sans-serif" font-size="11" lengthAdjust="spacingAndGlyphs" textLength="253" x="365.5" y="424.958">void OnDragLeave(object sender, DragEventArgs e)</text><text fill="#000000" font-family="sans-serif" font-size="11" lengthAdjust="spacingAndGlyphs" textLength="0" x="368.5" y="438.7939"/><rect fill="#F24D5C" height="6" style="stroke:#C82930;stroke-width:1.0;" width="6" x="353.5" y="445.2109"/><text fill="#000000" font-family="sans-serif" font-size="11" lengthAdjust="spacingAndGlyphs" textLength="223" x="365.5" y="452.6299">void OnDrop(object sender, DragEventArgs e)</text><text fill="#000000" font-family="sans-serif" font-size="11" lengthAdjust="spacingAndGlyphs" textLength="0" x="368.5" y="466.4658"/><line style="stroke:#A80036;stroke-width:1.0;stroke-dasharray:1.0,2.0;" x1="346.5" x2="533.5" y1="212.918" y2="212.918"/><text fill="#000000" font-family="sans-serif" font-size="11" lengthAdjust="spacingAndGlyphs" textLength="41" x="533.5" y="216.9189">Methods</text><line style="stroke:#A80036;stroke-width:1.0;stroke-dasharray:1.0,2.0;" x1="574.5" x2="761.5" y1="212.918" y2="212.918"/><ellipse cx="356.5" cy="493.7188" fill="none" rx="3" ry="3" style="stroke:#038048;stroke-width:1.0;"/><text fill="#000000" font-family="sans-serif" font-size="11" lengthAdjust="spacingAndGlyphs" textLength="178" x="365.5" y="498.1377">DragEnterCommand : RelayCommand</text><text fill="#000000" font-family="sans-serif" font-size="11" lengthAdjust="spacingAndGlyphs" textLength="0" x="368.5" y="511.9736"/><ellipse cx="356.5" cy="521.3906" fill="none" rx="3" ry="3" style="stroke:#038048;stroke-width:1.0;"/><text fill="#000000" font-family="sans-serif" font-size="11" lengthAdjust="spacingAndGlyphs" textLength="183" x="365.5" y="525.8096">DragLeaveCommand : RelayCommand</text><text fill="#000000" font-family="sans-serif" font-size="11" lengthAdjust="spacingAndGlyphs" textLength="0" x="368.5" y="539.6455"/><ellipse cx="356.5" cy="549.0625" fill="none" rx="3" ry="3" style="stroke:#038048;stroke-width:1.0;"/><text fill="#000000" font-family="sans-serif" font-size="11" lengthAdjust="spacingAndGlyphs" textLength="153" x="365.5" y="553.4814">DropCommand : RelayCommand</text><text fill="#000000" font-family="sans-serif" font-size="11" lengthAdjust="spacingAndGlyphs" textLength="0" x="368.5" y="567.3174"/><ellipse cx="356.5" cy="576.7344" fill="none" rx="3" ry="3" style="stroke:#038048;stroke-width:1.0;"/><text fill="#000000" font-family="sans-serif" font-size="11" lengthAdjust="spacingAndGlyphs" textLength="119" x="365.5" y="581.1533">Effect : DragDropEffects</text><text fill="#000000" font-family="sans-serif" font-size="11" lengthAdjust="spacingAndGlyphs" textLength="0" x="368.5" y="594.9893"/><ellipse cx="356.5" cy="604.4063" fill="none" rx="3" ry="3" style="stroke:#038048;stroke-width:1.0;"/><text fill="#000000" font-family="sans-serif" font-size="11" lengthAdjust="spacingAndGlyphs" textLength="130" x="365.5" y="608.8252">AllowItemDropTarget : bool</text><text fill="#000000" font-family="sans-serif" font-size="11" lengthAdjust="spacingAndGlyphs" textLength="0" x="368.5" y="622.6611"/><ellipse cx="356.5" cy="632.0781" fill="none" rx="3" ry="3" style="stroke:#038048;stroke-width:1.0;"/><text fill="#000000" font-family="sans-serif" font-size="11" lengthAdjust="spacingAndGlyphs" textLength="145" x="365.5" y="636.4971">AllowControlDropTarget : bool</text><text fill="#000000" font-family="sans-serif" font-size="11" lengthAdjust="spacingAndGlyphs" textLength="0" x="368.5" y="650.333"/><ellipse cx="356.5" cy="659.75" fill="none" rx="3" ry="3" style="stroke:#038048;stroke-width:1.0;"/><text fill="#000000" font-family="sans-serif" font-size="11" lengthAdjust="spacingAndGlyphs" textLength="111" x="365.5" y="664.1689">VisualizeOnOver : bool</text><text fill="#000000" font-family="sans-serif" font-size="11" lengthAdjust="spacingAndGlyphs" textLength="0" x="368.5" y="678.0049"/><ellipse cx="356.5" cy="687.4219" fill="none" rx="3" ry="3" style="stroke:#038048;stroke-width:1.0;"/><text fill="#000000" font-family="sans-serif" font-size="11" lengthAdjust="spacingAndGlyphs" textLength="85" x="365.5" y="691.8408">DropOnSelf : bool</text><text fill="#000000" font-family="sans-serif" font-size="11" lengthAdjust="spacingAndGlyphs" textLength="0" x="368.5" y="705.6768"/><ellipse cx="356.5" cy="715.0938" fill="none" rx="3" ry="3" style="stroke:#038048;stroke-width:1.0;"/><text fill="#000000" font-family="sans-serif" font-size="11" lengthAdjust="spacingAndGlyphs" textLength="159" x="365.5" y="719.5127">CanDragPredicate : Predicate&lt;T&gt;</text><text fill="#000000" font-family="sans-serif" font-size="11" lengthAdjust="spacingAndGlyphs" textLength="0" x="368.5" y="733.3486"/><ellipse cx="356.5" cy="742.7656" fill="none" rx="3" ry="3" style="stroke:#038048;stroke-width:1.0;"/><text fill="#000000" font-family="sans-serif" font-size="11" lengthAdjust="spacingAndGlyphs" textLength="159" x="365.5" y="747.1846">CanDropPredicate : Predicate&lt;T&gt;</text><text fill="#000000" font-family="sans-serif" font-size="11" lengthAdjust="spacingAndGlyphs" textLength="0" x="368.5" y="761.0205"/><ellipse cx="356.5" cy="770.4375" fill="none" rx="3" ry="3" style="stroke:#038048;stroke-width:1.0;"/><text fill="#000000" font-family="sans-serif" font-size="11" lengthAdjust="spacingAndGlyphs" textLength="137" x="365.5" y="774.8564">GetDataFunc : Func&lt;object&gt;</text><text fill="#000000" font-family="sans-serif" font-size="11" lengthAdjust="spacingAndGlyphs" textLength="0" x="368.5" y="788.6924"/><line style="stroke:#A80036;stroke-width:1.0;stroke-dasharray:1.0,2.0;" x1="346.5" x2="529.5" y1="479.8008" y2="479.8008"/><text fill="#000000" font-family="sans-serif" font-size="11" lengthAdjust="spacingAndGlyphs" textLength="49" x="529.5" y="483.8018">Properties</text><line style="stroke:#A80036;stroke-width:1.0;stroke-dasharray:1.0,2.0;" x1="578.5" x2="761.5" y1="479.8008" y2="479.8008"/><ellipse cx="356.5" cy="815.9453" fill="none" rx="3" ry="3" style="stroke:#038048;stroke-width:1.0;"/><text fill="#000000" font-family="sans-serif" font-size="11" lengthAdjust="spacingAndGlyphs" textLength="247" x="365.5" y="820.3643">DragEnterCommandProperty : DependencyProperty</text><text fill="#000000" font-family="sans-serif" font-size="11" lengthAdjust="spacingAndGlyphs" textLength="0" x="368.5" y="834.2002"/><ellipse cx="356.5" cy="843.6172" fill="none" rx="3" ry="3" style="stroke:#038048;stroke-width:1.0;"/><text fill="#000000" font-family="sans-serif" font-size="11" lengthAdjust="spacingAndGlyphs" textLength="252" x="365.5" y="848.0361">DragLeaveCommandProperty : DependencyProperty</text><text fill="#000000" font-family="sans-serif" font-size="11" lengthAdjust="spacingAndGlyphs" textLength="0" x="368.5" y="861.8721"/><ellipse cx="356.5" cy="871.2891" fill="none" rx="3" ry="3" style="stroke:#038048;stroke-width:1.0;"/><text fill="#000000" font-family="sans-serif" font-size="11" lengthAdjust="spacingAndGlyphs" textLength="222" x="365.5" y="875.708">DropCommandProperty : DependencyProperty</text><text fill="#000000" font-family="sans-serif" font-size="11" lengthAdjust="spacingAndGlyphs" textLength="0" x="368.5" y="889.5439"/><ellipse cx="356.5" cy="898.9609" fill="none" rx="3" ry="3" style="stroke:#038048;stroke-width:1.0;"/><text fill="#000000" font-family="sans-serif" font-size="11" lengthAdjust="spacingAndGlyphs" textLength="181" x="365.5" y="903.3799">EffectProperty : DependencyProperty</text><text fill="#000000" font-family="sans-serif" font-size="11" lengthAdjust="spacingAndGlyphs" textLength="0" x="368.5" y="917.2158"/><ellipse cx="356.5" cy="926.6328" fill="none" rx="3" ry="3" style="stroke:#038048;stroke-width:1.0;"/><text fill="#000000" font-family="sans-serif" font-size="11" lengthAdjust="spacingAndGlyphs" textLength="233" x="365.5" y="931.0518">IsItemDropTargetProperty : DependencyProperty</text><text fill="#000000" font-family="sans-serif" font-size="11" lengthAdjust="spacingAndGlyphs" textLength="0" x="368.5" y="944.8877"/><ellipse cx="356.5" cy="954.3047" fill="none" rx="3" ry="3" style="stroke:#038048;stroke-width:1.0;"/><text fill="#000000" font-family="sans-serif" font-size="11" lengthAdjust="spacingAndGlyphs" textLength="248" x="365.5" y="958.7236">IsControlDropTargetProperty : DependencyProperty</text><text fill="#000000" font-family="sans-serif" font-size="11" lengthAdjust="spacingAndGlyphs" textLength="0" x="368.5" y="972.5596"/><ellipse cx="356.5" cy="981.9766" fill="none" rx="3" ry="3" style="stroke:#038048;stroke-width:1.0;"/><text fill="#000000" font-family="sans-serif" font-size="11" lengthAdjust="spacingAndGlyphs" textLength="234" x="365.5" y="986.3955">VisualizeOnOverProperty : DependencyProperty</text><text fill="#000000" font-family="sans-serif" font-size="11" lengthAdjust="spacingAndGlyphs" textLength="0" x="368.5" y="1000.2314"/><ellipse cx="356.5" cy="1009.6484" fill="none" rx="3" ry="3" style="stroke:#038048;stroke-width:1.0;"/><text fill="#000000" font-family="sans-serif" font-size="11" lengthAdjust="spacingAndGlyphs" textLength="208" x="365.5" y="1014.0674">DropOnSelfProperty : DependencyProperty</text><text fill="#000000" font-family="sans-serif" font-size="11" lengthAdjust="spacingAndGlyphs" textLength="0" x="368.5" y="1027.9033"/><rect fill="none" height="6" style="stroke:#C82930;stroke-width:1.0;" width="6" x="353.5" y="1034.3203"/><text fill="#000000" font-family="sans-serif" font-size="11" lengthAdjust="spacingAndGlyphs" textLength="249" x="365.5" y="1041.7393">_previewMouseLeftButtonEventSetter : EventSetter</text><text fill="#000000" font-family="sans-serif" font-size="11" lengthAdjust="spacingAndGlyphs" textLength="0" x="368.5" y="1055.5752"/><rect fill="none" height="6" style="stroke:#C82930;stroke-width:1.0;" width="6" x="353.5" y="1061.9922"/><text fill="#000000" font-family="sans-serif" font-size="11" lengthAdjust="spacingAndGlyphs" textLength="225" x="365.5" y="1069.4111">_previewMouseMoveEventSetter : EventSetter</text><text fill="#000000" font-family="sans-serif" font-size="11" lengthAdjust="spacingAndGlyphs" textLength="0" x="368.5" y="1083.2471"/><rect fill="none" height="6" style="stroke:#C82930;stroke-width:1.0;" width="6" x="353.5" y="1089.6641"/><text fill="#000000" font-family="sans-serif" font-size="11" lengthAdjust="spacingAndGlyphs" textLength="174" x="365.5" y="1097.083">_dragEnterEventSetter : EventSetter</text><text fill="#000000" font-family="sans-serif" font-size="11" lengthAdjust="spacingAndGlyphs" textLength="0" x="368.5" y="1110.9189"/><rect fill="none" height="6" style="stroke:#C82930;stroke-width:1.0;" width="6" x="353.5" y="1117.3359"/><text fill="#000000" font-family="sans-serif" font-size="11" lengthAdjust="spacingAndGlyphs" textLength="179" x="365.5" y="1124.7549">_dragLeaveEventSetter : EventSetter</text><text fill="#000000" font-family="sans-serif" font-size="11" lengthAdjust="spacingAndGlyphs" textLength="0" x="368.5" y="1138.5908"/><rect fill="none" height="6" style="stroke:#C82930;stroke-width:1.0;" width="6" x="353.5" y="1145.0078"/><text fill="#000000" font-family="sans-serif" font-size="11" lengthAdjust="spacingAndGlyphs" textLength="149" x="365.5" y="1152.4268">_dropEventSetter : EventSetter</text><text fill="#000000" font-family="sans-serif" font-size="11" lengthAdjust="spacingAndGlyphs" textLength="0" x="368.5" y="1166.2627"/><rect fill="none" height="6" style="stroke:#C82930;stroke-width:1.0;" width="6" x="353.5" y="1172.6797"/><text fill="#000000" font-family="sans-serif" font-size="11" lengthAdjust="spacingAndGlyphs" textLength="122" x="365.5" y="1180.0986">_allowDropSetter : Setter</text><text fill="#000000" font-family="sans-serif" font-size="11" lengthAdjust="spacingAndGlyphs" textLength="0" x="368.5" y="1193.9346"/><polygon fill="none" points="356.5,1198.3516,360.5,1202.3516,356.5,1206.3516,352.5,1202.3516" style="stroke:#B38D22;stroke-width:1.0;"/><text fill="#000000" font-family="sans-serif" font-size="11" lengthAdjust="spacingAndGlyphs" textLength="74" x="365.5" y="1207.7705">draggedItem : T</text><text fill="#000000" font-family="sans-serif" font-size="11" lengthAdjust="spacingAndGlyphs" textLength="0" x="368.5" y="1221.6064"/><rect fill="none" height="6" style="stroke:#C82930;stroke-width:1.0;" width="6" x="353.5" y="1228.0234"/><text fill="#000000" font-family="sans-serif" font-size="11" lengthAdjust="spacingAndGlyphs" textLength="96" x="365.5" y="1235.4424">overedItem : Control</text><text fill="#000000" font-family="sans-serif" font-size="11" lengthAdjust="spacingAndGlyphs" textLength="0" x="368.5" y="1249.2783"/><rect fill="none" height="6" style="stroke:#C82930;stroke-width:1.0;" width="6" x="353.5" y="1255.6953"/><text fill="#000000" font-family="sans-serif" font-size="11" lengthAdjust="spacingAndGlyphs" textLength="116" x="365.5" y="1263.1143">_mouseStartPoint : Point</text><text fill="#000000" font-family="sans-serif" font-size="11" lengthAdjust="spacingAndGlyphs" textLength="0" x="368.5" y="1276.9502"/><rect fill="none" height="6" style="stroke:#C82930;stroke-width:1.0;" width="6" x="353.5" y="1283.3672"/><text fill="#000000" font-family="sans-serif" font-size="11" lengthAdjust="spacingAndGlyphs" textLength="134" x="365.5" y="1290.7861">originalBorderBrush : Brush</text><text fill="#000000" font-family="sans-serif" font-size="11" lengthAdjust="spacingAndGlyphs" textLength="0" x="368.5" y="1304.6221"/><rect fill="none" height="6" style="stroke:#C82930;stroke-width:1.0;" width="6" x="353.5" y="1311.0391"/><text fill="#000000" font-family="sans-serif" font-size="11" lengthAdjust="spacingAndGlyphs" textLength="174" x="365.5" y="1318.458">originalBorderThickness : Thickness</text><text fill="#000000" font-family="sans-serif" font-size="11" lengthAdjust="spacingAndGlyphs" textLength="0" x="368.5" y="1332.2939"/><line style="stroke:#A80036;stroke-width:1.0;stroke-dasharray:1.0,2.0;" x1="346.5" x2="540" y1="802.0273" y2="802.0273"/><text fill="#000000" font-family="sans-serif" font-size="11" lengthAdjust="spacingAndGlyphs" textLength="28" x="540" y="806.0283">Fields</text><line style="stroke:#A80036;stroke-width:1.0;stroke-dasharray:1.0,2.0;" x1="568" x2="761.5" y1="802.0273" y2="802.0273"/><!--MD5=[69170c1246d1a5907b8cec782fded421]
class WPFLibrary.Behaviors.DraggableTreeViewItemBehavior--><rect codeLine="7" fill="#FEFECE" filter="url(#f11r6xhd72pgeh)" height="113.1797" id="WPFLibrary.Behaviors.DraggableTreeViewItemBehavior" style="stroke:#A80036;stroke-width:1.5;" width="279" x="448.5" y="1399"/><ellipse cx="488.25" cy="1415" fill="#ADD1B2" rx="11" ry="11" style="stroke:#A80036;stroke-width:1.0;"/><path d="M491.0156,1410.875 Q491.1719,1410.6563 491.3594,1410.5469 Q491.5469,1410.4375 491.7656,1410.4375 Q492.1406,1410.4375 492.375,1410.7031 Q492.6094,1410.9531 492.6094,1411.5625 L492.6094,1413.0156 Q492.6094,1413.625 492.375,1413.8906 Q492.1406,1414.1563 491.7656,1414.1563 Q491.4219,1414.1563 491.2188,1413.9531 Q491.0156,1413.7656 490.9063,1413.25 Q490.8594,1412.8906 490.6719,1412.7031 Q490.3438,1412.3281 489.7344,1412.1094 Q489.125,1411.8906 488.5,1411.8906 Q487.7344,1411.8906 487.0938,1412.2188 Q486.4688,1412.5469 485.9688,1413.2969 Q485.4844,1414.0469 485.4844,1415.0781 L485.4844,1416.1719 Q485.4844,1417.4063 486.375,1418.2344 Q487.2656,1419.0469 488.8594,1419.0469 Q489.7969,1419.0469 490.4531,1418.7969 Q490.8438,1418.6406 491.2656,1418.2031 Q491.5313,1417.9375 491.6719,1417.8594 Q491.8281,1417.7813 492.0313,1417.7813 Q492.3594,1417.7813 492.6094,1418.0469 Q492.875,1418.2969 492.875,1418.6406 Q492.875,1418.9844 492.5313,1419.3906 Q492.0313,1419.9688 491.2344,1420.2969 Q490.1563,1420.75 488.8594,1420.75 Q487.3438,1420.75 486.1406,1420.125 Q485.1563,1419.625 484.4688,1418.5625 Q483.7813,1417.4844 483.7813,1416.2031 L483.7813,1415.0469 Q483.7813,1413.7188 484.3906,1412.5781 Q485.0156,1411.4219 486.1094,1410.8125 Q487.2031,1410.1875 488.4375,1410.1875 Q489.1719,1410.1875 489.8125,1410.3594 Q490.4688,1410.5156 491.0156,1410.875 Z " fill="#000000"/><ellipse cx="512.75" cy="1414.5" fill="#84BE84" rx="3" ry="3" style="stroke:#038048;stroke-width:1.0;"/><text fill="#000000" font-family="sans-serif" font-size="12" lengthAdjust="spacingAndGlyphs" textLength="181" x="518.75" y="1419.9102">DraggableTreeViewItemBehavior</text><line style="stroke:#A80036;stroke-width:1.5;" x1="449.5" x2="726.5" y1="1431" y2="1431"/><ellipse cx="459.5" cy="1459.8359" fill="#84BE84" rx="3" ry="3" style="stroke:#038048;stroke-width:1.0;"/><text fill="#000000" font-family="sans-serif" font-size="11" lengthAdjust="spacingAndGlyphs" textLength="198" x="468.5" y="1464.2549">public DraggableTreeViewItemBehavior()</text><text fill="#000000" font-family="sans-serif" font-size="11" lengthAdjust="spacingAndGlyphs" textLength="0" x="471.5" y="1478.0908"/><rect fill="#F24D5C" height="6" style="stroke:#C82930;stroke-width:1.0;" width="6" x="456.5" y="1484.5078"/><text fill="#000000" font-family="sans-serif" font-size="11" lengthAdjust="spacingAndGlyphs" textLength="253" x="468.5" y="1491.9268">TreeViewItem IsChildOf(object source, object target)</text><text fill="#000000" font-family="sans-serif" font-size="11" lengthAdjust="spacingAndGlyphs" textLength="0" x="471.5" y="1505.7627"/><line style="stroke:#A80036;stroke-width:1.0;stroke-dasharray:1.0,2.0;" x1="449.5" x2="567.5" y1="1445.918" y2="1445.918"/><text fill="#000000" font-family="sans-serif" font-size="11" lengthAdjust="spacingAndGlyphs" textLength="41" x="567.5" y="1449.9189">Methods</text><line style="stroke:#A80036;stroke-width:1.0;stroke-dasharray:1.0,2.0;" x1="608.5" x2="726.5" y1="1445.918" y2="1445.918"/><!--MD5=[2553bdd63bb948ac677b61f57f392200]
class WPFLibrary.Behaviors.TreeViewSelectionBehavior--><rect codeLine="101" fill="#FEFECE" filter="url(#f11r6xhd72pgeh)" height="186.3594" id="WPFLibrary.Behaviors.TreeViewSelectionBehavior" style="stroke:#A80036;stroke-width:1.5;" width="278" x="32" y="659.5"/><ellipse cx="86.25" cy="675.5" fill="#ADD1B2" rx="11" ry="11" style="stroke:#A80036;stroke-width:1.0;"/><path d="M89.0156,671.375 Q89.1719,671.1563 89.3594,671.0469 Q89.5469,670.9375 89.7656,670.9375 Q90.1406,670.9375 90.375,671.2031 Q90.6094,671.4531 90.6094,672.0625 L90.6094,673.5156 Q90.6094,674.125 90.375,674.3906 Q90.1406,674.6563 89.7656,674.6563 Q89.4219,674.6563 89.2188,674.4531 Q89.0156,674.2656 88.9063,673.75 Q88.8594,673.3906 88.6719,673.2031 Q88.3438,672.8281 87.7344,672.6094 Q87.125,672.3906 86.5,672.3906 Q85.7344,672.3906 85.0938,672.7188 Q84.4688,673.0469 83.9688,673.7969 Q83.4844,674.5469 83.4844,675.5781 L83.4844,676.6719 Q83.4844,677.9063 84.375,678.7344 Q85.2656,679.5469 86.8594,679.5469 Q87.7969,679.5469 88.4531,679.2969 Q88.8438,679.1406 89.2656,678.7031 Q89.5313,678.4375 89.6719,678.3594 Q89.8281,678.2813 90.0313,678.2813 Q90.3594,678.2813 90.6094,678.5469 Q90.875,678.7969 90.875,679.1406 Q90.875,679.4844 90.5313,679.8906 Q90.0313,680.4688 89.2344,680.7969 Q88.1563,681.25 86.8594,681.25 Q85.3438,681.25 84.1406,680.625 Q83.1563,680.125 82.4688,679.0625 Q81.7813,677.9844 81.7813,676.7031 L81.7813,675.5469 Q81.7813,674.2188 82.3906,673.0781 Q83.0156,671.9219 84.1094,671.3125 Q85.2031,670.6875 86.4375,670.6875 Q87.1719,670.6875 87.8125,670.8594 Q88.4688,671.0156 89.0156,671.375 Z " fill="#000000"/><ellipse cx="111.75" cy="675" fill="#84BE84" rx="3" ry="3" style="stroke:#038048;stroke-width:1.0;"/><text fill="#000000" font-family="sans-serif" font-size="12" lengthAdjust="spacingAndGlyphs" textLength="150" x="117.75" y="680.4102">TreeViewSelectionBehavior</text><line style="stroke:#A80036;stroke-width:1.5;" x1="33" x2="309" y1="691.5" y2="691.5"/><ellipse cx="43" cy="720.3359" fill="#84BE84" rx="3" ry="3" style="stroke:#038048;stroke-width:1.0;"/><text fill="#000000" font-family="sans-serif" font-size="11" lengthAdjust="spacingAndGlyphs" textLength="252" x="52" y="724.7549">bool IsChildOfPredicate(object nodeA, object nodeB)</text><text fill="#000000" font-family="sans-serif" font-size="11" lengthAdjust="spacingAndGlyphs" textLength="0" x="55" y="738.5908"/><line style="stroke:#A80036;stroke-width:1.0;stroke-dasharray:1.0,2.0;" x1="33" x2="150.5" y1="706.418" y2="706.418"/><text fill="#000000" font-family="sans-serif" font-size="11" lengthAdjust="spacingAndGlyphs" textLength="41" x="150.5" y="710.4189">Methods</text><line style="stroke:#A80036;stroke-width:1.0;stroke-dasharray:1.0,2.0;" x1="191.5" x2="309" y1="706.418" y2="706.418"/><ellipse cx="43" cy="765.8438" fill="none" rx="3" ry="3" style="stroke:#038048;stroke-width:1.0;"/><text fill="#000000" font-family="sans-serif" font-size="11" lengthAdjust="spacingAndGlyphs" textLength="213" x="52" y="770.2627">SelectedItemProperty : DependencyProperty</text><text fill="#000000" font-family="sans-serif" font-size="11" lengthAdjust="spacingAndGlyphs" textLength="0" x="55" y="784.0986"/><ellipse cx="43" cy="793.5156" fill="none" rx="3" ry="3" style="stroke:#038048;stroke-width:1.0;"/><text fill="#000000" font-family="sans-serif" font-size="11" lengthAdjust="spacingAndGlyphs" textLength="244" x="52" y="797.9346">HierarchyPredicateProperty : DependencyProperty</text><text fill="#000000" font-family="sans-serif" font-size="11" lengthAdjust="spacingAndGlyphs" textLength="0" x="55" y="811.7705"/><ellipse cx="43" cy="821.1875" fill="none" rx="3" ry="3" style="stroke:#038048;stroke-width:1.0;"/><text fill="#000000" font-family="sans-serif" font-size="11" lengthAdjust="spacingAndGlyphs" textLength="230" x="52" y="825.6064">ExpandSelectedProperty : DependencyProperty</text><text fill="#000000" font-family="sans-serif" font-size="11" lengthAdjust="spacingAndGlyphs" textLength="0" x="55" y="839.4424"/><line style="stroke:#A80036;stroke-width:1.0;stroke-dasharray:1.0,2.0;" x1="33" x2="157" y1="751.9258" y2="751.9258"/><text fill="#000000" font-family="sans-serif" font-size="11" lengthAdjust="spacingAndGlyphs" textLength="28" x="157" y="755.9268">Fields</text><line style="stroke:#A80036;stroke-width:1.0;stroke-dasharray:1.0,2.0;" x1="185" x2="309" y1="751.9258" y2="751.9258"/><!--MD5=[c697e11e6a708f2c7f80fbfcd0d3e1fa]
class ___Common___.Behavior--><rect fill="#FEFECE" filter="url(#f11r6xhd72pgeh)" height="48" id="___Common___.Behavior" style="stroke:#A80036;stroke-width:1.5;" width="80" x="322" y="42"/><ellipse cx="337" cy="58" fill="#ADD1B2" rx="11" ry="11" style="stroke:#A80036;stroke-width:1.0;"/><path d="M339.7656,53.875 Q339.9219,53.6563 340.1094,53.5469 Q340.2969,53.4375 340.5156,53.4375 Q340.8906,53.4375 341.125,53.7031 Q341.3594,53.9531 341.3594,54.5625 L341.3594,56.0156 Q341.3594,56.625 341.125,56.8906 Q340.8906,57.1563 340.5156,57.1563 Q340.1719,57.1563 339.9688,56.9531 Q339.7656,56.7656 339.6563,56.25 Q339.6094,55.8906 339.4219,55.7031 Q339.0938,55.3281 338.4844,55.1094 Q337.875,54.8906 337.25,54.8906 Q336.4844,54.8906 335.8438,55.2188 Q335.2188,55.5469 334.7188,56.2969 Q334.2344,57.0469 334.2344,58.0781 L334.2344,59.1719 Q334.2344,60.4063 335.125,61.2344 Q336.0156,62.0469 337.6094,62.0469 Q338.5469,62.0469 339.2031,61.7969 Q339.5938,61.6406 340.0156,61.2031 Q340.2813,60.9375 340.4219,60.8594 Q340.5781,60.7813 340.7813,60.7813 Q341.1094,60.7813 341.3594,61.0469 Q341.625,61.2969 341.625,61.6406 Q341.625,61.9844 341.2813,62.3906 Q340.7813,62.9688 339.9844,63.2969 Q338.9063,63.75 337.6094,63.75 Q336.0938,63.75 334.8906,63.125 Q333.9063,62.625 333.2188,61.5625 Q332.5313,60.4844 332.5313,59.2031 L332.5313,58.0469 Q332.5313,56.7188 333.1406,55.5781 Q333.7656,54.4219 334.8594,53.8125 Q335.9531,53.1875 337.1875,53.1875 Q337.9219,53.1875 338.5625,53.3594 Q339.2188,53.5156 339.7656,53.875 Z " fill="#000000"/><text fill="#000000" font-family="sans-serif" font-size="12" lengthAdjust="spacingAndGlyphs" textLength="48" x="351" y="62.9102">Behavior</text><line style="stroke:#A80036;stroke-width:1.5;" x1="323" x2="401" y1="74" y2="74"/><line style="stroke:#A80036;stroke-width:1.5;" x1="323" x2="401" y1="82" y2="82"/><!--MD5=[46c829db2e1624ed5d3e182117cdcc80]
reverse link WPFLibrary.Behaviors.BaseDragAndDropContainerItemBehavior to WPFLibrary.Behaviors.DraggableListBoxItemBehavior--><path d="M341.001,1358.003 C330.094,1388.958 321.198,1414.204 315.245,1431.099 " fill="none" id="WPFLibrary.Behaviors.BaseDragAndDropContainerItemBehavior-backto-WPFLibrary.Behaviors.DraggableListBoxItemBehavior" style="stroke:#A80036;stroke-width:1.0;"/><polygon fill="none" points="334.4,1355.674,347.649,1339.137,347.604,1360.326,334.4,1355.674" style="stroke:#A80036;stroke-width:1.0;"/><!--MD5=[a8bb23424562a8630fb7f1695b4898fd]
reverse link WPFLibrary.Behaviors.BaseDragAndDropContainerItemBehavior to WPFLibrary.Behaviors.DraggableTreeViewItemBehavior--><path d="M583.374,1359.116 C584.084,1373.764 584.732,1387.115 585.303,1398.885 " fill="none" id="WPFLibrary.Behaviors.BaseDragAndDropContainerItemBehavior-backto-WPFLibrary.Behaviors.DraggableTreeViewItemBehavior" style="stroke:#A80036;stroke-width:1.0;"/><polygon fill="none" points="576.382,1359.452,582.405,1339.137,590.365,1358.774,576.382,1359.452" style="stroke:#A80036;stroke-width:1.0;"/><!--MD5=[a940b7c848cf2eb3e72ff694c7b5a913]
reverse link ___Common___.Behavior to WPFLibrary.Behaviors.BaseDragAndDropContainerItemBehavior--><path d="M373.911,109.47 C378.244,124.91 383.606,144.03 389.736,165.88 " fill="none" id="___Common___.Behavior-backto-WPFLibrary.Behaviors.BaseDragAndDropContainerItemBehavior" style="stroke:#A80036;stroke-width:1.0;"/><polygon fill="none" points="367.16,111.31,368.498,90.17,380.64,107.53,367.16,111.31" style="stroke:#A80036;stroke-width:1.0;"/><!--MD5=[949757f848c95c070fac1a54f63a4b02]
reverse link ___Common___.Behavior to WPFLibrary.Behaviors.TreeViewSelectionBehavior--><path d="M335.012,107.59 C332.428,112.34 330.023,117.2 328,122 C250.921,304.79 205.588,534.03 184.804,659.279 " fill="none" id="___Common___.Behavior-backto-WPFLibrary.Behaviors.TreeViewSelectionBehavior" style="stroke:#A80036;stroke-width:1.0;"/><polygon fill="none" points="329.134,103.78,345.422,90.23,341.141,110.98,329.134,103.78" style="stroke:#A80036;stroke-width:1.0;"/><!--MD5=[64ab8609074d5268a9b3c67a3b6eb3b4]
@startuml
namespace WPFLibrary.Behaviors {
	class DraggableListBoxItemBehavior extends BaseDragAndDropContainerItemBehavior
	+class DraggableListBoxItemBehavior {
	}

	class DraggableTreeViewItemBehavior extends BaseDragAndDropContainerItemBehavior
	+class DraggableTreeViewItemBehavior {
	.. Methods ..
		+public DraggableTreeViewItemBehavior()

		-TreeViewItem IsChildOf(object source, object target)

	}

	class BaseDragAndDropContainerItemBehavior<T> extends ___Common___.Behavior
	+class BaseDragAndDropContainerItemBehavior<T> {
	.. Methods ..
		+public BaseDragAndDropContainerItemBehavior()

		#void OnAttached()

		#void OnDetaching()

		-void UpdateItemContainerStyle()

		-void OnPreviewMouseLeftButtonDown(object sender, MouseButtonEventArgs e)

		-void OnPreviewMouseMove(object sender, MouseEventArgs e)

		-void OnDragEnter(object sender, DragEventArgs e)

		-void OnDragLeave(object sender, DragEventArgs e)

		-void OnDrop(object sender, DragEventArgs e)

	.. Properties ..
		+DragEnterCommand : RelayCommand

		+DragLeaveCommand : RelayCommand

		+DropCommand : RelayCommand

		+Effect : DragDropEffects

		+AllowItemDropTarget : bool

		+AllowControlDropTarget : bool

		+VisualizeOnOver : bool

		+DropOnSelf : bool

		+CanDragPredicate : Predicate<T>

		+CanDropPredicate : Predicate<T>

		+GetDataFunc : Func<object>

	.. Fields ..
		+DragEnterCommandProperty : DependencyProperty

		+DragLeaveCommandProperty : DependencyProperty

		+DropCommandProperty : DependencyProperty

		+EffectProperty : DependencyProperty

		+IsItemDropTargetProperty : DependencyProperty

		+IsControlDropTargetProperty : DependencyProperty

		+VisualizeOnOverProperty : DependencyProperty

		+DropOnSelfProperty : DependencyProperty

		-_previewMouseLeftButtonEventSetter : EventSetter

		-_previewMouseMoveEventSetter : EventSetter

		-_dragEnterEventSetter : EventSetter

		-_dragLeaveEventSetter : EventSetter

		-_dropEventSetter : EventSetter

		-_allowDropSetter : Setter

		#draggedItem : T

		-overedItem : Control

		-_mouseStartPoint : Point

		-originalBorderBrush : Brush

		-originalBorderThickness : Thickness

	}

	class TreeViewSelectionBehavior extends ___Common___.Behavior
	+class TreeViewSelectionBehavior {
	.. Methods ..
		+bool IsChildOfPredicate(object nodeA, object nodeB)

	.. Fields ..
		+SelectedItemProperty : DependencyProperty

		+HierarchyPredicateProperty : DependencyProperty

		+ExpandSelectedProperty : DependencyProperty

	}

}
@enduml

PlantUML version 1.2020.22(Sun Dec 06 11:36:27 IST 2020)
(GPL source distribution)
Java Runtime: OpenJDK Runtime Environment
JVM: OpenJDK 64-Bit Server VM
Default Encoding: UTF-8
Language: en
Country: GB
--></g></svg>