<?xml version="1.0" encoding="UTF-8" standalone="no"?><svg xmlns="http://www.w3.org/2000/svg" xmlns:xlink="http://www.w3.org/1999/xlink" contentScriptType="application/ecmascript" contentStyleType="text/css" height="405px" preserveAspectRatio="none" style="width:1196px;height:405px;" version="1.1" viewBox="0 0 1196 405" width="1196px" zoomAndPan="magnify"><defs><filter height="300%" id="f78l198ychr2r" width="300%" x="-1" y="-1"><feGaussianBlur result="blurOut" stdDeviation="2.0"/><feColorMatrix in="blurOut" result="blurOut2" type="matrix" values="0 0 0 0 0 0 0 0 0 0 0 0 0 0 0 0 0 0 .4 0"/><feOffset dx="4.0" dy="4.0" in="blurOut2" result="blurOut3"/><feBlend in="SourceGraphic" in2="blurOut3" mode="normal"/></filter></defs><g><!--MD5=[ba0988314ae6c271a8bd82952c468b81]
cluster WPFLibrary.EnumBinding--><polygon fill="#FFFFFF" filter="url(#f78l198ychr2r)" points="16,129,223,129,230,151.2969,1179,151.2969,1179,398,16,398,16,129" style="stroke:#000000;stroke-width:1.5;"/><line style="stroke:#000000;stroke-width:1.5;" x1="16" x2="230" y1="151.2969" y2="151.2969"/><text fill="#000000" font-family="sans-serif" font-size="14" font-weight="bold" lengthAdjust="spacingAndGlyphs" textLength="201" x="20" y="143.9951">WPFLibrary.EnumBinding</text><!--MD5=[8c44c800f3ba61fb2ed1a48dad095105]
cluster ___Common___--><polygon fill="#FFFFFF" filter="url(#f78l198ychr2r)" points="543,6,633,6,640,28.2969,868,28.2969,868,105,543,105,543,6" style="stroke:#000000;stroke-width:1.5;"/><line style="stroke:#000000;stroke-width:1.5;" x1="543" x2="640" y1="28.2969" y2="28.2969"/><text fill="#000000" font-family="sans-serif" font-size="14" font-weight="bold" lengthAdjust="spacingAndGlyphs" text-decoration="underline" textLength="77" x="547" y="20.9951">_Common</text><text fill="#000000" font-family="sans-serif" font-size="14" font-weight="bold" lengthAdjust="spacingAndGlyphs" textLength="7" x="624" y="20.9951">_</text><!--MD5=[3c7e5b780384a9862696d0ea2d0accec]
class WPFLibrary.EnumBinding.EnumBindingSourceExtension--><rect codeLine="4" fill="#FEFECE" filter="url(#f78l198ychr2r)" height="218.4609" id="WPFLibrary.EnumBinding.EnumBindingSourceExtension" style="stroke:#A80036;stroke-width:1.5;" width="336" x="827" y="164"/><ellipse cx="896.75" cy="180" fill="#ADD1B2" rx="11" ry="11" style="stroke:#A80036;stroke-width:1.0;"/><path d="M899.0938,175.6719 C898.1563,175.2344 897.5625,175.0938 896.6875,175.0938 C894.0625,175.0938 892.0625,177.1719 892.0625,179.8906 L892.0625,181.0156 C892.0625,183.5938 894.1719,185.4844 897.0625,185.4844 C898.2813,185.4844 899.4375,185.1875 900.1875,184.6406 C900.7656,184.2344 901.0938,183.7813 901.0938,183.3906 C901.0938,182.9375 900.7031,182.5469 900.2344,182.5469 C900.0156,182.5469 899.8125,182.625 899.625,182.8125 C899.1719,183.2969 899.1719,183.2969 898.9844,183.3906 C898.5625,183.6563 897.875,183.7813 897.1094,183.7813 C895.0625,183.7813 893.7656,182.6875 893.7656,180.9844 L893.7656,179.8906 C893.7656,178.1094 895.0156,176.7969 896.75,176.7969 C897.3281,176.7969 897.9375,176.9531 898.4063,177.2031 C898.8906,177.4844 899.0625,177.7031 899.1563,178.1094 C899.2188,178.5156 899.25,178.6406 899.3906,178.7656 C899.5313,178.9063 899.7656,179.0156 899.9844,179.0156 C900.25,179.0156 900.5156,178.875 900.6875,178.6563 C900.7969,178.5 900.8281,178.3125 900.8281,177.8906 L900.8281,176.4688 C900.8281,176.0313 900.8125,175.9063 900.7188,175.75 C900.5625,175.4844 900.2813,175.3438 899.9844,175.3438 C899.6875,175.3438 899.4844,175.4375 899.2656,175.75 L899.0938,175.6719 Z " fill="#000000"/><ellipse cx="922.25" cy="179.5" fill="#84BE84" rx="3" ry="3" style="stroke:#038048;stroke-width:1.0;"/><text fill="#000000" font-family="sans-serif" font-size="12" lengthAdjust="spacingAndGlyphs" textLength="177" x="928.25" y="184.1543">EnumBindingSourceExtension</text><line style="stroke:#A80036;stroke-width:1.5;" x1="828" x2="1162" y1="196" y2="196"/><ellipse cx="838" cy="223.8047" fill="#84BE84" rx="3" ry="3" style="stroke:#038048;stroke-width:1.0;"/><text fill="#000000" font-family="sans-serif" font-size="11" lengthAdjust="spacingAndGlyphs" textLength="215" x="847" y="227.0151">public EnumBindingSourceExtension()</text><text fill="#000000" font-family="sans-serif" font-size="11" lengthAdjust="spacingAndGlyphs" textLength="0" x="851" y="239.8198"/><ellipse cx="838" cy="249.4141" fill="#84BE84" rx="3" ry="3" style="stroke:#038048;stroke-width:1.0;"/><text fill="#000000" font-family="sans-serif" font-size="11" lengthAdjust="spacingAndGlyphs" textLength="310" x="847" y="252.6245">public EnumBindingSourceExtension(Type enumType)</text><text fill="#000000" font-family="sans-serif" font-size="11" lengthAdjust="spacingAndGlyphs" textLength="0" x="851" y="265.4292"/><ellipse cx="838" cy="275.0234" fill="#84BE84" rx="3" ry="3" style="stroke:#038048;stroke-width:1.0;"/><text fill="#000000" font-family="sans-serif" font-size="11" lengthAdjust="spacingAndGlyphs" textLength="307" x="847" y="278.2339">object ProvideValue(IServiceProvider serviceProvider)</text><text fill="#000000" font-family="sans-serif" font-size="11" lengthAdjust="spacingAndGlyphs" textLength="0" x="851" y="291.0386"/><line style="stroke:#A80036;stroke-width:1.0;stroke-dasharray:1.0,2.0;" x1="828" x2="971" y1="210.4023" y2="210.4023"/><text fill="#000000" font-family="sans-serif" font-size="11" lengthAdjust="spacingAndGlyphs" textLength="48" x="971" y="213.7104">Methods</text><line style="stroke:#A80036;stroke-width:1.0;stroke-dasharray:1.0,2.0;" x1="1019" x2="1162" y1="210.4023" y2="210.4023"/><ellipse cx="838" cy="317.4375" fill="none" rx="3" ry="3" style="stroke:#038048;stroke-width:1.0;"/><text fill="#000000" font-family="sans-serif" font-size="11" lengthAdjust="spacingAndGlyphs" textLength="101" x="847" y="320.6479">EnumType : Type</text><text fill="#000000" font-family="sans-serif" font-size="11" lengthAdjust="spacingAndGlyphs" textLength="0" x="851" y="333.4526"/><line style="stroke:#A80036;stroke-width:1.0;stroke-dasharray:1.0,2.0;" x1="828" x2="966.5" y1="304.0352" y2="304.0352"/><text fill="#000000" font-family="sans-serif" font-size="11" lengthAdjust="spacingAndGlyphs" textLength="57" x="966.5" y="307.3433">Properties</text><line style="stroke:#A80036;stroke-width:1.0;stroke-dasharray:1.0,2.0;" x1="1023.5" x2="1162" y1="304.0352" y2="304.0352"/><rect fill="none" height="6" style="stroke:#C82930;stroke-width:1.0;" width="6" x="835" y="356.8516"/><text fill="#000000" font-family="sans-serif" font-size="11" lengthAdjust="spacingAndGlyphs" textLength="108" x="847" y="363.062">_enumType : Type</text><text fill="#000000" font-family="sans-serif" font-size="11" lengthAdjust="spacingAndGlyphs" textLength="0" x="851" y="375.8667"/><line style="stroke:#A80036;stroke-width:1.0;stroke-dasharray:1.0,2.0;" x1="828" x2="978.5" y1="346.4492" y2="346.4492"/><text fill="#000000" font-family="sans-serif" font-size="11" lengthAdjust="spacingAndGlyphs" textLength="33" x="978.5" y="349.7573">Fields</text><line style="stroke:#A80036;stroke-width:1.0;stroke-dasharray:1.0,2.0;" x1="1011.5" x2="1162" y1="346.4492" y2="346.4492"/><!--MD5=[7ae7951d58d65c118ad755aa28c4f26d]
class WPFLibrary.EnumBinding.EnumDescriptionTypeConverter--><rect codeLine="21" fill="#FEFECE" filter="url(#f78l198ychr2r)" height="108.0234" id="WPFLibrary.EnumBinding.EnumDescriptionTypeConverter" style="stroke:#A80036;stroke-width:1.5;" width="760" x="32" y="219"/><ellipse cx="306.75" cy="235" fill="#ADD1B2" rx="11" ry="11" style="stroke:#A80036;stroke-width:1.0;"/><path d="M309.0938,230.6719 C308.1563,230.2344 307.5625,230.0938 306.6875,230.0938 C304.0625,230.0938 302.0625,232.1719 302.0625,234.8906 L302.0625,236.0156 C302.0625,238.5938 304.1719,240.4844 307.0625,240.4844 C308.2813,240.4844 309.4375,240.1875 310.1875,239.6406 C310.7656,239.2344 311.0938,238.7813 311.0938,238.3906 C311.0938,237.9375 310.7031,237.5469 310.2344,237.5469 C310.0156,237.5469 309.8125,237.625 309.625,237.8125 C309.1719,238.2969 309.1719,238.2969 308.9844,238.3906 C308.5625,238.6563 307.875,238.7813 307.1094,238.7813 C305.0625,238.7813 303.7656,237.6875 303.7656,235.9844 L303.7656,234.8906 C303.7656,233.1094 305.0156,231.7969 306.75,231.7969 C307.3281,231.7969 307.9375,231.9531 308.4063,232.2031 C308.8906,232.4844 309.0625,232.7031 309.1563,233.1094 C309.2188,233.5156 309.25,233.6406 309.3906,233.7656 C309.5313,233.9063 309.7656,234.0156 309.9844,234.0156 C310.25,234.0156 310.5156,233.875 310.6875,233.6563 C310.7969,233.5 310.8281,233.3125 310.8281,232.8906 L310.8281,231.4688 C310.8281,231.0313 310.8125,230.9063 310.7188,230.75 C310.5625,230.4844 310.2813,230.3438 309.9844,230.3438 C309.6875,230.3438 309.4844,230.4375 309.2656,230.75 L309.0938,230.6719 Z " fill="#000000"/><ellipse cx="332.25" cy="234.5" fill="#84BE84" rx="3" ry="3" style="stroke:#038048;stroke-width:1.0;"/><text fill="#000000" font-family="sans-serif" font-size="12" lengthAdjust="spacingAndGlyphs" textLength="191" x="338.25" y="239.1543">EnumDescriptionTypeConverter</text><line style="stroke:#A80036;stroke-width:1.5;" x1="33" x2="791" y1="251" y2="251"/><ellipse cx="43" cy="278.8047" fill="#84BE84" rx="3" ry="3" style="stroke:#038048;stroke-width:1.0;"/><text fill="#000000" font-family="sans-serif" font-size="11" lengthAdjust="spacingAndGlyphs" textLength="403" x="52" y="282.0151">public EnumDescriptionTypeConverter(Type type)            : base(type)</text><text fill="#000000" font-family="sans-serif" font-size="11" lengthAdjust="spacingAndGlyphs" textLength="0" x="56" y="294.8198"/><ellipse cx="43" cy="304.4141" fill="#84BE84" rx="3" ry="3" style="stroke:#038048;stroke-width:1.0;"/><text fill="#000000" font-family="sans-serif" font-size="11" lengthAdjust="spacingAndGlyphs" textLength="734" x="52" y="307.6245">object ConvertTo(ITypeDescriptorContext context, System.Globalization.CultureInfo culture, object value, Type destinationType)</text><text fill="#000000" font-family="sans-serif" font-size="11" lengthAdjust="spacingAndGlyphs" textLength="0" x="56" y="320.4292"/><line style="stroke:#A80036;stroke-width:1.0;stroke-dasharray:1.0,2.0;" x1="33" x2="388" y1="265.4023" y2="265.4023"/><text fill="#000000" font-family="sans-serif" font-size="11" lengthAdjust="spacingAndGlyphs" textLength="48" x="388" y="268.7104">Methods</text><line style="stroke:#A80036;stroke-width:1.0;stroke-dasharray:1.0,2.0;" x1="436" x2="791" y1="265.4023" y2="265.4023"/><!--MD5=[cfbc96eea936cf7d6a8cf697764389ec]
class ___Common___.MarkupExtension--><rect fill="#FEFECE" filter="url(#f78l198ychr2r)" height="48" id="___Common___.MarkupExtension" style="stroke:#A80036;stroke-width:1.5;" width="134" x="718" y="41"/><ellipse cx="733" cy="57" fill="#ADD1B2" rx="11" ry="11" style="stroke:#A80036;stroke-width:1.0;"/><path d="M735.3438,52.6719 C734.4063,52.2344 733.8125,52.0938 732.9375,52.0938 C730.3125,52.0938 728.3125,54.1719 728.3125,56.8906 L728.3125,58.0156 C728.3125,60.5938 730.4219,62.4844 733.3125,62.4844 C734.5313,62.4844 735.6875,62.1875 736.4375,61.6406 C737.0156,61.2344 737.3438,60.7813 737.3438,60.3906 C737.3438,59.9375 736.9531,59.5469 736.4844,59.5469 C736.2656,59.5469 736.0625,59.625 735.875,59.8125 C735.4219,60.2969 735.4219,60.2969 735.2344,60.3906 C734.8125,60.6563 734.125,60.7813 733.3594,60.7813 C731.3125,60.7813 730.0156,59.6875 730.0156,57.9844 L730.0156,56.8906 C730.0156,55.1094 731.2656,53.7969 733,53.7969 C733.5781,53.7969 734.1875,53.9531 734.6563,54.2031 C735.1406,54.4844 735.3125,54.7031 735.4063,55.1094 C735.4688,55.5156 735.5,55.6406 735.6406,55.7656 C735.7813,55.9063 736.0156,56.0156 736.2344,56.0156 C736.5,56.0156 736.7656,55.875 736.9375,55.6563 C737.0469,55.5 737.0781,55.3125 737.0781,54.8906 L737.0781,53.4688 C737.0781,53.0313 737.0625,52.9063 736.9688,52.75 C736.8125,52.4844 736.5313,52.3438 736.2344,52.3438 C735.9375,52.3438 735.7344,52.4375 735.5156,52.75 L735.3438,52.6719 Z " fill="#000000"/><text fill="#000000" font-family="sans-serif" font-size="12" lengthAdjust="spacingAndGlyphs" textLength="102" x="747" y="61.1543">MarkupExtension</text><line style="stroke:#A80036;stroke-width:1.5;" x1="719" x2="851" y1="73" y2="73"/><line style="stroke:#A80036;stroke-width:1.5;" x1="719" x2="851" y1="81" y2="81"/><!--MD5=[53ca9d633a0571da22fc3fc225a80a71]
class ___Common___.EnumConverter--><rect fill="#FEFECE" filter="url(#f78l198ychr2r)" height="48" id="___Common___.EnumConverter" style="stroke:#A80036;stroke-width:1.5;" width="124" x="559" y="41"/><ellipse cx="574" cy="57" fill="#ADD1B2" rx="11" ry="11" style="stroke:#A80036;stroke-width:1.0;"/><path d="M576.3438,52.6719 C575.4063,52.2344 574.8125,52.0938 573.9375,52.0938 C571.3125,52.0938 569.3125,54.1719 569.3125,56.8906 L569.3125,58.0156 C569.3125,60.5938 571.4219,62.4844 574.3125,62.4844 C575.5313,62.4844 576.6875,62.1875 577.4375,61.6406 C578.0156,61.2344 578.3438,60.7813 578.3438,60.3906 C578.3438,59.9375 577.9531,59.5469 577.4844,59.5469 C577.2656,59.5469 577.0625,59.625 576.875,59.8125 C576.4219,60.2969 576.4219,60.2969 576.2344,60.3906 C575.8125,60.6563 575.125,60.7813 574.3594,60.7813 C572.3125,60.7813 571.0156,59.6875 571.0156,57.9844 L571.0156,56.8906 C571.0156,55.1094 572.2656,53.7969 574,53.7969 C574.5781,53.7969 575.1875,53.9531 575.6563,54.2031 C576.1406,54.4844 576.3125,54.7031 576.4063,55.1094 C576.4688,55.5156 576.5,55.6406 576.6406,55.7656 C576.7813,55.9063 577.0156,56.0156 577.2344,56.0156 C577.5,56.0156 577.7656,55.875 577.9375,55.6563 C578.0469,55.5 578.0781,55.3125 578.0781,54.8906 L578.0781,53.4688 C578.0781,53.0313 578.0625,52.9063 577.9688,52.75 C577.8125,52.4844 577.5313,52.3438 577.2344,52.3438 C576.9375,52.3438 576.7344,52.4375 576.5156,52.75 L576.3438,52.6719 Z " fill="#000000"/><text fill="#000000" font-family="sans-serif" font-size="12" lengthAdjust="spacingAndGlyphs" textLength="92" x="588" y="61.1543">EnumConverter</text><line style="stroke:#A80036;stroke-width:1.5;" x1="560" x2="682" y1="73" y2="73"/><line style="stroke:#A80036;stroke-width:1.5;" x1="560" x2="682" y1="81" y2="81"/><!--MD5=[a535d6d075f562380538944007973814]
reverse link ___Common___.MarkupExtension to WPFLibrary.EnumBinding.EnumBindingSourceExtension--><path d="M823.16,103.433 C840.661,120.601 862.403,141.929 884.471,163.576 " fill="none" id="___Common___.MarkupExtension-backto-WPFLibrary.EnumBinding.EnumBindingSourceExtension" style="stroke:#A80036;stroke-width:1.0;"/><polygon fill="none" points="818.057,108.233,808.681,89.23,827.861,98.239,818.057,108.233" style="stroke:#A80036;stroke-width:1.0;"/><!--MD5=[b56673633c09ad7085a114cc1c0674e5]
reverse link ___Common___.EnumConverter to WPFLibrary.EnumBinding.EnumDescriptionTypeConverter--><path d="M583.094,103.362 C550.328,135.657 502.59,182.71 465.86,218.913 " fill="none" id="___Common___.EnumConverter-backto-WPFLibrary.EnumBinding.EnumDescriptionTypeConverter" style="stroke:#A80036;stroke-width:1.0;"/><polygon fill="none" points="578.273,98.285,597.431,89.23,588.101,108.255,578.273,98.285" style="stroke:#A80036;stroke-width:1.0;"/><!--MD5=[43f254fd06e6769289aeda2aff96244e]
@startuml

namespace WPFLibrary.EnumBinding {
	class EnumBindingSourceExtension extends ___Common___.MarkupExtension
	+class EnumBindingSourceExtension {
	.. Methods ..
		+public EnumBindingSourceExtension()

		+public EnumBindingSourceExtension(Type enumType)

		+object ProvideValue(IServiceProvider serviceProvider)

	.. Properties ..
		+EnumType : Type

	.. Fields ..
		-_enumType : Type

	}

	class EnumDescriptionTypeConverter extends ___Common___.EnumConverter
	+class EnumDescriptionTypeConverter {
	.. Methods ..
		+public EnumDescriptionTypeConverter(Type type)            : base(type)

		+object ConvertTo(ITypeDescriptorContext context, System.Globalization.CultureInfo culture, object value, Type destinationType)

	}

}
@enduml

PlantUML version 1.2020.27beta3(Unknown compile time)
(GPL source distribution)
Java Runtime: Java(TM) SE Runtime Environment
JVM: Java HotSpot(TM) 64-Bit Server VM
Default Encoding: UTF-8
Language: en
Country: US
--></g></svg>