<?xml version="1.0" encoding="UTF-8" standalone="no"?><svg xmlns="http://www.w3.org/2000/svg" xmlns:xlink="http://www.w3.org/1999/xlink" contentScriptType="application/ecmascript" contentStyleType="text/css" height="354px" preserveAspectRatio="none" style="width:297px;height:354px;" version="1.1" viewBox="0 0 297 354" width="297px" zoomAndPan="magnify"><defs><filter height="300%" id="f5y59yajxlng9" width="300%" x="-1" y="-1"><feGaussianBlur result="blurOut" stdDeviation="2.0"/><feColorMatrix in="blurOut" result="blurOut2" type="matrix" values="0 0 0 0 0 0 0 0 0 0 0 0 0 0 0 0 0 0 .4 0"/><feOffset dx="4.0" dy="4.0" in="blurOut2" result="blurOut3"/><feBlend in="SourceGraphic" in2="blurOut3" mode="normal"/></filter></defs><g><!--MD5=[26b91f74058a29a5354111e9ee06c582]
cluster WPFLibrary.Freezables--><polygon fill="#FFFFFF" filter="url(#f5y59yajxlng9)" points="16,129,204,129,211,151.2969,280,151.2969,280,347,16,347,16,129" style="stroke:#000000;stroke-width:1.5;"/><line style="stroke:#000000;stroke-width:1.5;" x1="16" x2="211" y1="151.2969" y2="151.2969"/><text fill="#000000" font-family="sans-serif" font-size="14" font-weight="bold" lengthAdjust="spacingAndGlyphs" textLength="182" x="20" y="143.9951">WPFLibrary.Freezables</text><!--MD5=[8c44c800f3ba61fb2ed1a48dad095105]
cluster ___Common___--><polygon fill="#FFFFFF" filter="url(#f5y59yajxlng9)" points="85,6,175,6,182,28.2969,211,28.2969,211,105,85,105,85,6" style="stroke:#000000;stroke-width:1.5;"/><line style="stroke:#000000;stroke-width:1.5;" x1="85" x2="182" y1="28.2969" y2="28.2969"/><text fill="#000000" font-family="sans-serif" font-size="14" font-weight="bold" lengthAdjust="spacingAndGlyphs" text-decoration="underline" textLength="77" x="89" y="20.9951">_Common</text><text fill="#000000" font-family="sans-serif" font-size="14" font-weight="bold" lengthAdjust="spacingAndGlyphs" textLength="7" x="166" y="20.9951">_</text><!--MD5=[aa9566645afbac5d69fb1b06b6807234]
class WPFLibrary.Freezables.BindingProxy--><rect codeLine="4" fill="#FEFECE" filter="url(#f5y59yajxlng9)" height="167.2422" id="WPFLibrary.Freezables.BindingProxy" style="stroke:#A80036;stroke-width:1.5;" width="232" x="32" y="164"/><ellipse cx="99.75" cy="180" fill="#ADD1B2" rx="11" ry="11" style="stroke:#A80036;stroke-width:1.0;"/><path d="M102.0938,175.6719 C101.1563,175.2344 100.5625,175.0938 99.6875,175.0938 C97.0625,175.0938 95.0625,177.1719 95.0625,179.8906 L95.0625,181.0156 C95.0625,183.5938 97.1719,185.4844 100.0625,185.4844 C101.2813,185.4844 102.4375,185.1875 103.1875,184.6406 C103.7656,184.2344 104.0938,183.7813 104.0938,183.3906 C104.0938,182.9375 103.7031,182.5469 103.2344,182.5469 C103.0156,182.5469 102.8125,182.625 102.625,182.8125 C102.1719,183.2969 102.1719,183.2969 101.9844,183.3906 C101.5625,183.6563 100.875,183.7813 100.1094,183.7813 C98.0625,183.7813 96.7656,182.6875 96.7656,180.9844 L96.7656,179.8906 C96.7656,178.1094 98.0156,176.7969 99.75,176.7969 C100.3281,176.7969 100.9375,176.9531 101.4063,177.2031 C101.8906,177.4844 102.0625,177.7031 102.1563,178.1094 C102.2188,178.5156 102.25,178.6406 102.3906,178.7656 C102.5313,178.9063 102.7656,179.0156 102.9844,179.0156 C103.25,179.0156 103.5156,178.875 103.6875,178.6563 C103.7969,178.5 103.8281,178.3125 103.8281,177.8906 L103.8281,176.4688 C103.8281,176.0313 103.8125,175.9063 103.7188,175.75 C103.5625,175.4844 103.2813,175.3438 102.9844,175.3438 C102.6875,175.3438 102.4844,175.4375 102.2656,175.75 L102.0938,175.6719 Z " fill="#000000"/><ellipse cx="125.25" cy="179.5" fill="#84BE84" rx="3" ry="3" style="stroke:#038048;stroke-width:1.0;"/><text fill="#000000" font-family="sans-serif" font-size="12" lengthAdjust="spacingAndGlyphs" textLength="77" x="131.25" y="184.1543">BindingProxy</text><line style="stroke:#A80036;stroke-width:1.5;" x1="33" x2="263" y1="196" y2="196"/><polygon fill="#FFFF44" points="43,218.8047,47,222.8047,43,226.8047,39,222.8047" style="stroke:#B38D22;stroke-width:1.0;"/><text fill="#000000" font-family="sans-serif" font-size="11" lengthAdjust="spacingAndGlyphs" textLength="184" x="52" y="227.0151">Freezable CreateInstanceCore()</text><text fill="#000000" font-family="sans-serif" font-size="11" lengthAdjust="spacingAndGlyphs" textLength="0" x="56" y="239.8198"/><line style="stroke:#A80036;stroke-width:1.0;stroke-dasharray:1.0,2.0;" x1="33" x2="124" y1="210.4023" y2="210.4023"/><text fill="#000000" font-family="sans-serif" font-size="11" lengthAdjust="spacingAndGlyphs" textLength="48" x="124" y="213.7104">Methods</text><line style="stroke:#A80036;stroke-width:1.0;stroke-dasharray:1.0,2.0;" x1="172" x2="263" y1="210.4023" y2="210.4023"/><ellipse cx="43" cy="266.2188" fill="none" rx="3" ry="3" style="stroke:#038048;stroke-width:1.0;"/><text fill="#000000" font-family="sans-serif" font-size="11" lengthAdjust="spacingAndGlyphs" textLength="73" x="52" y="269.4292">Data : object</text><text fill="#000000" font-family="sans-serif" font-size="11" lengthAdjust="spacingAndGlyphs" textLength="0" x="56" y="282.2339"/><line style="stroke:#A80036;stroke-width:1.0;stroke-dasharray:1.0,2.0;" x1="33" x2="119.5" y1="252.8164" y2="252.8164"/><text fill="#000000" font-family="sans-serif" font-size="11" lengthAdjust="spacingAndGlyphs" textLength="57" x="119.5" y="256.1245">Properties</text><line style="stroke:#A80036;stroke-width:1.0;stroke-dasharray:1.0,2.0;" x1="176.5" x2="263" y1="252.8164" y2="252.8164"/><ellipse cx="43" cy="308.6328" fill="none" rx="3" ry="3" style="stroke:#038048;stroke-width:1.0;"/><text fill="#000000" font-family="sans-serif" font-size="11" lengthAdjust="spacingAndGlyphs" textLength="206" x="52" y="311.8433">DataProperty : DependencyProperty</text><text fill="#000000" font-family="sans-serif" font-size="11" lengthAdjust="spacingAndGlyphs" textLength="0" x="56" y="324.6479"/><line style="stroke:#A80036;stroke-width:1.0;stroke-dasharray:1.0,2.0;" x1="33" x2="131.5" y1="295.2305" y2="295.2305"/><text fill="#000000" font-family="sans-serif" font-size="11" lengthAdjust="spacingAndGlyphs" textLength="33" x="131.5" y="298.5386">Fields</text><line style="stroke:#A80036;stroke-width:1.0;stroke-dasharray:1.0,2.0;" x1="164.5" x2="263" y1="295.2305" y2="295.2305"/><!--MD5=[1f66e2059977c1e987634e47ec9abd7e]
class ___Common___.Freezable--><rect fill="#FEFECE" filter="url(#f5y59yajxlng9)" height="48" id="___Common___.Freezable" style="stroke:#A80036;stroke-width:1.5;" width="93" x="101.5" y="41"/><ellipse cx="116.5" cy="57" fill="#ADD1B2" rx="11" ry="11" style="stroke:#A80036;stroke-width:1.0;"/><path d="M118.8438,52.6719 C117.9063,52.2344 117.3125,52.0938 116.4375,52.0938 C113.8125,52.0938 111.8125,54.1719 111.8125,56.8906 L111.8125,58.0156 C111.8125,60.5938 113.9219,62.4844 116.8125,62.4844 C118.0313,62.4844 119.1875,62.1875 119.9375,61.6406 C120.5156,61.2344 120.8438,60.7813 120.8438,60.3906 C120.8438,59.9375 120.4531,59.5469 119.9844,59.5469 C119.7656,59.5469 119.5625,59.625 119.375,59.8125 C118.9219,60.2969 118.9219,60.2969 118.7344,60.3906 C118.3125,60.6563 117.625,60.7813 116.8594,60.7813 C114.8125,60.7813 113.5156,59.6875 113.5156,57.9844 L113.5156,56.8906 C113.5156,55.1094 114.7656,53.7969 116.5,53.7969 C117.0781,53.7969 117.6875,53.9531 118.1563,54.2031 C118.6406,54.4844 118.8125,54.7031 118.9063,55.1094 C118.9688,55.5156 119,55.6406 119.1406,55.7656 C119.2813,55.9063 119.5156,56.0156 119.7344,56.0156 C120,56.0156 120.2656,55.875 120.4375,55.6563 C120.5469,55.5 120.5781,55.3125 120.5781,54.8906 L120.5781,53.4688 C120.5781,53.0313 120.5625,52.9063 120.4688,52.75 C120.3125,52.4844 120.0313,52.3438 119.7344,52.3438 C119.4375,52.3438 119.2344,52.4375 119.0156,52.75 L118.8438,52.6719 Z " fill="#000000"/><text fill="#000000" font-family="sans-serif" font-size="12" lengthAdjust="spacingAndGlyphs" textLength="61" x="130.5" y="61.1543">Freezable</text><line style="stroke:#A80036;stroke-width:1.5;" x1="102.5" x2="193.5" y1="73" y2="73"/><line style="stroke:#A80036;stroke-width:1.5;" x1="102.5" x2="193.5" y1="81" y2="81"/><!--MD5=[fcc0a05702b545bc74d49428bfd230d5]
reverse link ___Common___.Freezable to WPFLibrary.Freezables.BindingProxy--><path d="M148,109.446 C148,125.784 148,144.951 148,163.687 " fill="none" id="___Common___.Freezable-backto-WPFLibrary.Freezables.BindingProxy" style="stroke:#A80036;stroke-width:1.0;"/><polygon fill="none" points="141,109.228,148,89.228,155,109.228,141,109.228" style="stroke:#A80036;stroke-width:1.0;"/><!--MD5=[71edb30d07764d85056718b37c0079f7]
@startuml

namespace WPFLibrary.Freezables {
	class BindingProxy extends ___Common___.Freezable
	+class BindingProxy {
	.. Methods ..
		#Freezable CreateInstanceCore()

	.. Properties ..
		+Data : object

	.. Fields ..
		+DataProperty : DependencyProperty

	}

}
@enduml

PlantUML version 1.2020.27beta3(Unknown compile time)
(GPL source distribution)
Java Runtime: Java(TM) SE Runtime Environment
JVM: Java HotSpot(TM) 64-Bit Server VM
Default Encoding: UTF-8
Language: en
Country: US
--></g></svg>