<?xml version="1.0" encoding="UTF-8" standalone="no"?><svg xmlns="http://www.w3.org/2000/svg" xmlns:xlink="http://www.w3.org/1999/xlink" contentScriptType="application/ecmascript" contentStyleType="text/css" height="295px" preserveAspectRatio="none" style="width:445px;height:295px;" version="1.1" viewBox="0 0 445 295" width="445px" zoomAndPan="magnify"><defs><filter height="300%" id="f1v5wxbmhanvqi" width="300%" x="-1" y="-1"><feGaussianBlur result="blurOut" stdDeviation="2.0"/><feColorMatrix in="blurOut" result="blurOut2" type="matrix" values="0 0 0 0 0 0 0 0 0 0 0 0 0 0 0 0 0 0 .4 0"/><feOffset dx="4.0" dy="4.0" in="blurOut2" result="blurOut3"/><feBlend in="SourceGraphic" in2="blurOut3" mode="normal"/></filter></defs><g><!--MD5=[e1501ddea570eab279e795e68b11a42a]
cluster WPFLibrary.Validations--><polygon fill="#FFFFFF" filter="url(#f1v5wxbmhanvqi)" points="16,129,211,129,218,151.2969,428,151.2969,428,288,16,288,16,129" style="stroke:#000000;stroke-width:1.5;"/><line style="stroke:#000000;stroke-width:1.5;" x1="16" x2="218" y1="151.2969" y2="151.2969"/><text fill="#000000" font-family="sans-serif" font-size="14" font-weight="bold" lengthAdjust="spacingAndGlyphs" textLength="189" x="20" y="143.9951">WPFLibrary.Validations</text><!--MD5=[8c44c800f3ba61fb2ed1a48dad095105]
cluster ___Common___--><polygon fill="#FFFFFF" filter="url(#f1v5wxbmhanvqi)" points="148,6,238,6,245,28.2969,296,28.2969,296,105,148,105,148,6" style="stroke:#000000;stroke-width:1.5;"/><line style="stroke:#000000;stroke-width:1.5;" x1="148" x2="245" y1="28.2969" y2="28.2969"/><text fill="#000000" font-family="sans-serif" font-size="14" font-weight="bold" lengthAdjust="spacingAndGlyphs" text-decoration="underline" textLength="77" x="152" y="20.9951">_Common</text><text fill="#000000" font-family="sans-serif" font-size="14" font-weight="bold" lengthAdjust="spacingAndGlyphs" textLength="7" x="229" y="20.9951">_</text><!--MD5=[64422e499464143f18fdc703b8d6f7df]
class WPFLibrary.Validations.ValidateStringNotNullOrWhiteSpaces--><rect codeLine="4" fill="#FEFECE" filter="url(#f1v5wxbmhanvqi)" height="108.0234" id="WPFLibrary.Validations.ValidateStringNotNullOrWhiteSpaces" style="stroke:#A80036;stroke-width:1.5;" width="380" x="32" y="164"/><ellipse cx="103.25" cy="180" fill="#ADD1B2" rx="11" ry="11" style="stroke:#A80036;stroke-width:1.0;"/><path d="M105.5938,175.6719 C104.6563,175.2344 104.0625,175.0938 103.1875,175.0938 C100.5625,175.0938 98.5625,177.1719 98.5625,179.8906 L98.5625,181.0156 C98.5625,183.5938 100.6719,185.4844 103.5625,185.4844 C104.7813,185.4844 105.9375,185.1875 106.6875,184.6406 C107.2656,184.2344 107.5938,183.7813 107.5938,183.3906 C107.5938,182.9375 107.2031,182.5469 106.7344,182.5469 C106.5156,182.5469 106.3125,182.625 106.125,182.8125 C105.6719,183.2969 105.6719,183.2969 105.4844,183.3906 C105.0625,183.6563 104.375,183.7813 103.6094,183.7813 C101.5625,183.7813 100.2656,182.6875 100.2656,180.9844 L100.2656,179.8906 C100.2656,178.1094 101.5156,176.7969 103.25,176.7969 C103.8281,176.7969 104.4375,176.9531 104.9063,177.2031 C105.3906,177.4844 105.5625,177.7031 105.6563,178.1094 C105.7188,178.5156 105.75,178.6406 105.8906,178.7656 C106.0313,178.9063 106.2656,179.0156 106.4844,179.0156 C106.75,179.0156 107.0156,178.875 107.1875,178.6563 C107.2969,178.5 107.3281,178.3125 107.3281,177.8906 L107.3281,176.4688 C107.3281,176.0313 107.3125,175.9063 107.2188,175.75 C107.0625,175.4844 106.7813,175.3438 106.4844,175.3438 C106.1875,175.3438 105.9844,175.4375 105.7656,175.75 L105.5938,175.6719 Z " fill="#000000"/><ellipse cx="128.75" cy="179.5" fill="#84BE84" rx="3" ry="3" style="stroke:#038048;stroke-width:1.0;"/><text fill="#000000" font-family="sans-serif" font-size="12" lengthAdjust="spacingAndGlyphs" textLength="218" x="134.75" y="184.1543">ValidateStringNotNullOrWhiteSpaces</text><line style="stroke:#A80036;stroke-width:1.5;" x1="33" x2="411" y1="196" y2="196"/><ellipse cx="43" cy="223.8047" fill="#84BE84" rx="3" ry="3" style="stroke:#038048;stroke-width:1.0;"/><text fill="#000000" font-family="sans-serif" font-size="11" lengthAdjust="spacingAndGlyphs" textLength="253" x="52" y="227.0151">public ValidateStringNotNullOrWhiteSpaces()</text><text fill="#000000" font-family="sans-serif" font-size="11" lengthAdjust="spacingAndGlyphs" textLength="0" x="56" y="239.8198"/><ellipse cx="43" cy="249.4141" fill="#84BE84" rx="3" ry="3" style="stroke:#038048;stroke-width:1.0;"/><text fill="#000000" font-family="sans-serif" font-size="11" lengthAdjust="spacingAndGlyphs" textLength="354" x="52" y="252.6245">ValidationResult Validate(object value, CultureInfo cultureInfo)</text><text fill="#000000" font-family="sans-serif" font-size="11" lengthAdjust="spacingAndGlyphs" textLength="0" x="56" y="265.4292"/><line style="stroke:#A80036;stroke-width:1.0;stroke-dasharray:1.0,2.0;" x1="33" x2="198" y1="210.4023" y2="210.4023"/><text fill="#000000" font-family="sans-serif" font-size="11" lengthAdjust="spacingAndGlyphs" textLength="48" x="198" y="213.7104">Methods</text><line style="stroke:#A80036;stroke-width:1.0;stroke-dasharray:1.0,2.0;" x1="246" x2="411" y1="210.4023" y2="210.4023"/><!--MD5=[fe5e7a9ae2c33751aec86b0d292fc03f]
class ___Common___.ValidationRule--><rect fill="#FEFECE" filter="url(#f1v5wxbmhanvqi)" height="48" id="___Common___.ValidationRule" style="stroke:#A80036;stroke-width:1.5;" width="115" x="164.5" y="41"/><ellipse cx="179.5" cy="57" fill="#ADD1B2" rx="11" ry="11" style="stroke:#A80036;stroke-width:1.0;"/><path d="M181.8438,52.6719 C180.9063,52.2344 180.3125,52.0938 179.4375,52.0938 C176.8125,52.0938 174.8125,54.1719 174.8125,56.8906 L174.8125,58.0156 C174.8125,60.5938 176.9219,62.4844 179.8125,62.4844 C181.0313,62.4844 182.1875,62.1875 182.9375,61.6406 C183.5156,61.2344 183.8438,60.7813 183.8438,60.3906 C183.8438,59.9375 183.4531,59.5469 182.9844,59.5469 C182.7656,59.5469 182.5625,59.625 182.375,59.8125 C181.9219,60.2969 181.9219,60.2969 181.7344,60.3906 C181.3125,60.6563 180.625,60.7813 179.8594,60.7813 C177.8125,60.7813 176.5156,59.6875 176.5156,57.9844 L176.5156,56.8906 C176.5156,55.1094 177.7656,53.7969 179.5,53.7969 C180.0781,53.7969 180.6875,53.9531 181.1563,54.2031 C181.6406,54.4844 181.8125,54.7031 181.9063,55.1094 C181.9688,55.5156 182,55.6406 182.1406,55.7656 C182.2813,55.9063 182.5156,56.0156 182.7344,56.0156 C183,56.0156 183.2656,55.875 183.4375,55.6563 C183.5469,55.5 183.5781,55.3125 183.5781,54.8906 L183.5781,53.4688 C183.5781,53.0313 183.5625,52.9063 183.4688,52.75 C183.3125,52.4844 183.0313,52.3438 182.7344,52.3438 C182.4375,52.3438 182.2344,52.4375 182.0156,52.75 L181.8438,52.6719 Z " fill="#000000"/><text fill="#000000" font-family="sans-serif" font-size="12" lengthAdjust="spacingAndGlyphs" textLength="83" x="193.5" y="61.1543">ValidationRule</text><line style="stroke:#A80036;stroke-width:1.5;" x1="165.5" x2="278.5" y1="73" y2="73"/><line style="stroke:#A80036;stroke-width:1.5;" x1="165.5" x2="278.5" y1="81" y2="81"/><!--MD5=[655fae17f509c7bd3771492bd0d0eb69]
reverse link ___Common___.ValidationRule to WPFLibrary.Validations.ValidateStringNotNullOrWhiteSpaces--><path d="M222,109.384 C222,126.407 222,146.107 222,163.962 " fill="none" id="___Common___.ValidationRule-backto-WPFLibrary.Validations.ValidateStringNotNullOrWhiteSpaces" style="stroke:#A80036;stroke-width:1.0;"/><polygon fill="none" points="215,109.263,222,89.263,229,109.263,215,109.263" style="stroke:#A80036;stroke-width:1.0;"/><!--MD5=[608845096bec5ae3b719499e03960a40]
@startuml

namespace WPFLibrary.Validations {
	class ValidateStringNotNullOrWhiteSpaces extends ___Common___.ValidationRule
	+class ValidateStringNotNullOrWhiteSpaces {
	.. Methods ..
		+public ValidateStringNotNullOrWhiteSpaces()

		+ValidationResult Validate(object value, CultureInfo cultureInfo)

	}

}
@enduml

PlantUML version 1.2020.27beta3(Unknown compile time)
(GPL source distribution)
Java Runtime: Java(TM) SE Runtime Environment
JVM: Java HotSpot(TM) 64-Bit Server VM
Default Encoding: UTF-8
Language: en
Country: US
--></g></svg>