<?xml version="1.0" encoding="UTF-8" standalone="no"?><svg xmlns="http://www.w3.org/2000/svg" xmlns:xlink="http://www.w3.org/1999/xlink" contentScriptType="application/ecmascript" contentStyleType="text/css" height="321px" preserveAspectRatio="none" style="width:4940px;height:321px;" version="1.1" viewBox="0 0 4940 321" width="4940px" zoomAndPan="magnify"><defs><filter height="300%" id="f1jfo51yuf5029" width="300%" x="-1" y="-1"><feGaussianBlur result="blurOut" stdDeviation="2.0"/><feColorMatrix in="blurOut" result="blurOut2" type="matrix" values="0 0 0 0 0 0 0 0 0 0 0 0 0 0 0 0 0 0 .4 0"/><feOffset dx="4.0" dy="4.0" in="blurOut2" result="blurOut3"/><feBlend in="SourceGraphic" in2="blurOut3" mode="normal"/></filter></defs><g><!--MD5=[55d2707ae94d7734f930c594fc0651ef]
cluster WPFLibrary.ValueConverters--><polygon fill="#FFFFFF" filter="url(#f1jfo51yuf5029)" points="16,129,251,129,258,151.2969,4923,151.2969,4923,314,16,314,16,129" style="stroke:#000000;stroke-width:1.5;"/><line style="stroke:#000000;stroke-width:1.5;" x1="16" x2="258" y1="151.2969" y2="151.2969"/><text fill="#000000" font-family="sans-serif" font-size="14" font-weight="bold" lengthAdjust="spacingAndGlyphs" textLength="229" x="20" y="143.9951">WPFLibrary.ValueConverters</text><!--MD5=[8c44c800f3ba61fb2ed1a48dad095105]
cluster ___Common___--><polygon fill="#FFFFFF" filter="url(#f1jfo51yuf5029)" points="2208,6,2298,6,2305,28.2969,2561,28.2969,2561,105,2208,105,2208,6" style="stroke:#000000;stroke-width:1.5;"/><line style="stroke:#000000;stroke-width:1.5;" x1="2208" x2="2305" y1="28.2969" y2="28.2969"/><text fill="#000000" font-family="sans-serif" font-size="14" font-weight="bold" lengthAdjust="spacingAndGlyphs" text-decoration="underline" textLength="77" x="2212" y="20.9951">_Common</text><text fill="#000000" font-family="sans-serif" font-size="14" font-weight="bold" lengthAdjust="spacingAndGlyphs" textLength="7" x="2289" y="20.9951">_</text><!--MD5=[ad56a34c1361cab096f24cdd49d9e60e]
class WPFLibrary.ValueConverters.MultiValueEqualityConverter--><rect codeLine="4" fill="#FEFECE" filter="url(#f1jfo51yuf5029)" height="108.0234" id="WPFLibrary.ValueConverters.MultiValueEqualityConverter" style="stroke:#A80036;stroke-width:1.5;" width="524" x="1274" y="177"/><ellipse cx="1443.25" cy="193" fill="#ADD1B2" rx="11" ry="11" style="stroke:#A80036;stroke-width:1.0;"/><path d="M1445.5938,188.6719 C1444.6563,188.2344 1444.0625,188.0938 1443.1875,188.0938 C1440.5625,188.0938 1438.5625,190.1719 1438.5625,192.8906 L1438.5625,194.0156 C1438.5625,196.5938 1440.6719,198.4844 1443.5625,198.4844 C1444.7813,198.4844 1445.9375,198.1875 1446.6875,197.6406 C1447.2656,197.2344 1447.5938,196.7813 1447.5938,196.3906 C1447.5938,195.9375 1447.2031,195.5469 1446.7344,195.5469 C1446.5156,195.5469 1446.3125,195.625 1446.125,195.8125 C1445.6719,196.2969 1445.6719,196.2969 1445.4844,196.3906 C1445.0625,196.6563 1444.375,196.7813 1443.6094,196.7813 C1441.5625,196.7813 1440.2656,195.6875 1440.2656,193.9844 L1440.2656,192.8906 C1440.2656,191.1094 1441.5156,189.7969 1443.25,189.7969 C1443.8281,189.7969 1444.4375,189.9531 1444.9063,190.2031 C1445.3906,190.4844 1445.5625,190.7031 1445.6563,191.1094 C1445.7188,191.5156 1445.75,191.6406 1445.8906,191.7656 C1446.0313,191.9063 1446.2656,192.0156 1446.4844,192.0156 C1446.75,192.0156 1447.0156,191.875 1447.1875,191.6563 C1447.2969,191.5 1447.3281,191.3125 1447.3281,190.8906 L1447.3281,189.4688 C1447.3281,189.0313 1447.3125,188.9063 1447.2188,188.75 C1447.0625,188.4844 1446.7813,188.3438 1446.4844,188.3438 C1446.1875,188.3438 1445.9844,188.4375 1445.7656,188.75 L1445.5938,188.6719 Z " fill="#000000"/><ellipse cx="1468.75" cy="192.5" fill="#84BE84" rx="3" ry="3" style="stroke:#038048;stroke-width:1.0;"/><text fill="#000000" font-family="sans-serif" font-size="12" lengthAdjust="spacingAndGlyphs" textLength="166" x="1474.75" y="197.1543">MultiValueEqualityConverter</text><line style="stroke:#A80036;stroke-width:1.5;" x1="1275" x2="1797" y1="209" y2="209"/><ellipse cx="1285" cy="236.8047" fill="#84BE84" rx="3" ry="3" style="stroke:#038048;stroke-width:1.0;"/><text fill="#000000" font-family="sans-serif" font-size="11" lengthAdjust="spacingAndGlyphs" textLength="498" x="1294" y="240.0151">object Convert(object[] values, Type targetType, object parameter, CultureInfo culture)</text><text fill="#000000" font-family="sans-serif" font-size="11" lengthAdjust="spacingAndGlyphs" textLength="0" x="1298" y="252.8198"/><ellipse cx="1285" cy="262.4141" fill="#84BE84" rx="3" ry="3" style="stroke:#038048;stroke-width:1.0;"/><text fill="#000000" font-family="sans-serif" font-size="11" lengthAdjust="spacingAndGlyphs" textLength="486" x="1294" y="265.6245">ConvertBack(object value, Type[] targetTypes, object parameter, CultureInfo culture)</text><text fill="#000000" font-family="sans-serif" font-size="11" lengthAdjust="spacingAndGlyphs" textLength="0" x="1298" y="278.4292"/><line style="stroke:#A80036;stroke-width:1.0;stroke-dasharray:1.0,2.0;" x1="1275" x2="1512" y1="223.4023" y2="223.4023"/><text fill="#000000" font-family="sans-serif" font-size="11" lengthAdjust="spacingAndGlyphs" textLength="48" x="1512" y="226.7104">Methods</text><line style="stroke:#A80036;stroke-width:1.0;stroke-dasharray:1.0,2.0;" x1="1560" x2="1797" y1="223.4023" y2="223.4023"/><!--MD5=[54254208cadb9ca0adedced0c5c5c7aa]
class WPFLibrary.ValueConverters.BitmapToBitmapImageConverter--><rect codeLine="13" fill="#FEFECE" filter="url(#f1jfo51yuf5029)" height="108.0234" id="WPFLibrary.ValueConverters.BitmapToBitmapImageConverter" style="stroke:#A80036;stroke-width:1.5;" width="537" x="2529.5" y="177"/><ellipse cx="2691.25" cy="193" fill="#ADD1B2" rx="11" ry="11" style="stroke:#A80036;stroke-width:1.0;"/><path d="M2693.5938,188.6719 C2692.6563,188.2344 2692.0625,188.0938 2691.1875,188.0938 C2688.5625,188.0938 2686.5625,190.1719 2686.5625,192.8906 L2686.5625,194.0156 C2686.5625,196.5938 2688.6719,198.4844 2691.5625,198.4844 C2692.7813,198.4844 2693.9375,198.1875 2694.6875,197.6406 C2695.2656,197.2344 2695.5938,196.7813 2695.5938,196.3906 C2695.5938,195.9375 2695.2031,195.5469 2694.7344,195.5469 C2694.5156,195.5469 2694.3125,195.625 2694.125,195.8125 C2693.6719,196.2969 2693.6719,196.2969 2693.4844,196.3906 C2693.0625,196.6563 2692.375,196.7813 2691.6094,196.7813 C2689.5625,196.7813 2688.2656,195.6875 2688.2656,193.9844 L2688.2656,192.8906 C2688.2656,191.1094 2689.5156,189.7969 2691.25,189.7969 C2691.8281,189.7969 2692.4375,189.9531 2692.9063,190.2031 C2693.3906,190.4844 2693.5625,190.7031 2693.6563,191.1094 C2693.7188,191.5156 2693.75,191.6406 2693.8906,191.7656 C2694.0313,191.9063 2694.2656,192.0156 2694.4844,192.0156 C2694.75,192.0156 2695.0156,191.875 2695.1875,191.6563 C2695.2969,191.5 2695.3281,191.3125 2695.3281,190.8906 L2695.3281,189.4688 C2695.3281,189.0313 2695.3125,188.9063 2695.2188,188.75 C2695.0625,188.4844 2694.7813,188.3438 2694.4844,188.3438 C2694.1875,188.3438 2693.9844,188.4375 2693.7656,188.75 L2693.5938,188.6719 Z " fill="#000000"/><ellipse cx="2716.75" cy="192.5" fill="#84BE84" rx="3" ry="3" style="stroke:#038048;stroke-width:1.0;"/><text fill="#000000" font-family="sans-serif" font-size="12" lengthAdjust="spacingAndGlyphs" textLength="194" x="2722.75" y="197.1543">BitmapToBitmapImageConverter</text><line style="stroke:#A80036;stroke-width:1.5;" x1="2530.5" x2="3065.5" y1="209" y2="209"/><ellipse cx="2540.5" cy="236.8047" fill="#84BE84" rx="3" ry="3" style="stroke:#038048;stroke-width:1.0;"/><text fill="#000000" font-family="sans-serif" font-size="11" lengthAdjust="spacingAndGlyphs" textLength="484" x="2549.5" y="240.0151">object Convert(object value, Type targetType, object parameter, CultureInfo culture)</text><text fill="#000000" font-family="sans-serif" font-size="11" lengthAdjust="spacingAndGlyphs" textLength="0" x="2553.5" y="252.8198"/><ellipse cx="2540.5" cy="262.4141" fill="#84BE84" rx="3" ry="3" style="stroke:#038048;stroke-width:1.0;"/><text fill="#000000" font-family="sans-serif" font-size="11" lengthAdjust="spacingAndGlyphs" textLength="511" x="2549.5" y="265.6245">object ConvertBack(object value, Type targetType, object parameter, CultureInfo culture)</text><text fill="#000000" font-family="sans-serif" font-size="11" lengthAdjust="spacingAndGlyphs" textLength="0" x="2553.5" y="278.4292"/><line style="stroke:#A80036;stroke-width:1.0;stroke-dasharray:1.0,2.0;" x1="2530.5" x2="2774" y1="223.4023" y2="223.4023"/><text fill="#000000" font-family="sans-serif" font-size="11" lengthAdjust="spacingAndGlyphs" textLength="48" x="2774" y="226.7104">Methods</text><line style="stroke:#A80036;stroke-width:1.0;stroke-dasharray:1.0,2.0;" x1="2822" x2="3065.5" y1="223.4023" y2="223.4023"/><!--MD5=[51a9423e4ebb1d858e70a89db85deee4]
class WPFLibrary.ValueConverters.BoolToVisibilityCollapsedConverter--><rect codeLine="22" fill="#FEFECE" filter="url(#f1jfo51yuf5029)" height="108.0234" id="WPFLibrary.ValueConverters.BoolToVisibilityCollapsedConverter" style="stroke:#A80036;stroke-width:1.5;" width="661" x="1833.5" y="177"/><ellipse cx="2048.75" cy="193" fill="#ADD1B2" rx="11" ry="11" style="stroke:#A80036;stroke-width:1.0;"/><path d="M2051.0938,188.6719 C2050.1563,188.2344 2049.5625,188.0938 2048.6875,188.0938 C2046.0625,188.0938 2044.0625,190.1719 2044.0625,192.8906 L2044.0625,194.0156 C2044.0625,196.5938 2046.1719,198.4844 2049.0625,198.4844 C2050.2813,198.4844 2051.4375,198.1875 2052.1875,197.6406 C2052.7656,197.2344 2053.0938,196.7813 2053.0938,196.3906 C2053.0938,195.9375 2052.7031,195.5469 2052.2344,195.5469 C2052.0156,195.5469 2051.8125,195.625 2051.625,195.8125 C2051.1719,196.2969 2051.1719,196.2969 2050.9844,196.3906 C2050.5625,196.6563 2049.875,196.7813 2049.1094,196.7813 C2047.0625,196.7813 2045.7656,195.6875 2045.7656,193.9844 L2045.7656,192.8906 C2045.7656,191.1094 2047.0156,189.7969 2048.75,189.7969 C2049.3281,189.7969 2049.9375,189.9531 2050.4063,190.2031 C2050.8906,190.4844 2051.0625,190.7031 2051.1563,191.1094 C2051.2188,191.5156 2051.25,191.6406 2051.3906,191.7656 C2051.5313,191.9063 2051.7656,192.0156 2051.9844,192.0156 C2052.25,192.0156 2052.5156,191.875 2052.6875,191.6563 C2052.7969,191.5 2052.8281,191.3125 2052.8281,190.8906 L2052.8281,189.4688 C2052.8281,189.0313 2052.8125,188.9063 2052.7188,188.75 C2052.5625,188.4844 2052.2813,188.3438 2051.9844,188.3438 C2051.6875,188.3438 2051.4844,188.4375 2051.2656,188.75 L2051.0938,188.6719 Z " fill="#000000"/><ellipse cx="2074.25" cy="192.5" fill="#84BE84" rx="3" ry="3" style="stroke:#038048;stroke-width:1.0;"/><text fill="#000000" font-family="sans-serif" font-size="12" lengthAdjust="spacingAndGlyphs" textLength="211" x="2080.25" y="197.1543">BoolToVisibilityCollapsedConverter</text><line style="stroke:#A80036;stroke-width:1.5;" x1="1834.5" x2="2493.5" y1="209" y2="209"/><ellipse cx="1844.5" cy="236.8047" fill="#84BE84" rx="3" ry="3" style="stroke:#038048;stroke-width:1.0;"/><text fill="#000000" font-family="sans-serif" font-size="11" lengthAdjust="spacingAndGlyphs" textLength="608" x="1853.5" y="240.0151">object Convert(object value, Type targetType, object parameter, System.Globalization.CultureInfo culture)</text><text fill="#000000" font-family="sans-serif" font-size="11" lengthAdjust="spacingAndGlyphs" textLength="0" x="1857.5" y="252.8198"/><ellipse cx="1844.5" cy="262.4141" fill="#84BE84" rx="3" ry="3" style="stroke:#038048;stroke-width:1.0;"/><text fill="#000000" font-family="sans-serif" font-size="11" lengthAdjust="spacingAndGlyphs" textLength="635" x="1853.5" y="265.6245">object ConvertBack(object value, Type targetType, object parameter, System.Globalization.CultureInfo culture)</text><text fill="#000000" font-family="sans-serif" font-size="11" lengthAdjust="spacingAndGlyphs" textLength="0" x="1857.5" y="278.4292"/><line style="stroke:#A80036;stroke-width:1.0;stroke-dasharray:1.0,2.0;" x1="1834.5" x2="2140" y1="223.4023" y2="223.4023"/><text fill="#000000" font-family="sans-serif" font-size="11" lengthAdjust="spacingAndGlyphs" textLength="48" x="2140" y="226.7104">Methods</text><line style="stroke:#A80036;stroke-width:1.0;stroke-dasharray:1.0,2.0;" x1="2188" x2="2493.5" y1="223.4023" y2="223.4023"/><!--MD5=[6f3efc8c9311532e42f30e677009831f]
class WPFLibrary.ValueConverters.BoolToVisibilityConverter--><rect codeLine="31" fill="#FEFECE" filter="url(#f1jfo51yuf5029)" height="108.0234" id="WPFLibrary.ValueConverters.BoolToVisibilityConverter" style="stroke:#A80036;stroke-width:1.5;" width="537" x="4369.5" y="177"/><ellipse cx="4552.75" cy="193" fill="#ADD1B2" rx="11" ry="11" style="stroke:#A80036;stroke-width:1.0;"/><path d="M4555.0938,188.6719 C4554.1563,188.2344 4553.5625,188.0938 4552.6875,188.0938 C4550.0625,188.0938 4548.0625,190.1719 4548.0625,192.8906 L4548.0625,194.0156 C4548.0625,196.5938 4550.1719,198.4844 4553.0625,198.4844 C4554.2813,198.4844 4555.4375,198.1875 4556.1875,197.6406 C4556.7656,197.2344 4557.0938,196.7813 4557.0938,196.3906 C4557.0938,195.9375 4556.7031,195.5469 4556.2344,195.5469 C4556.0156,195.5469 4555.8125,195.625 4555.625,195.8125 C4555.1719,196.2969 4555.1719,196.2969 4554.9844,196.3906 C4554.5625,196.6563 4553.875,196.7813 4553.1094,196.7813 C4551.0625,196.7813 4549.7656,195.6875 4549.7656,193.9844 L4549.7656,192.8906 C4549.7656,191.1094 4551.0156,189.7969 4552.75,189.7969 C4553.3281,189.7969 4553.9375,189.9531 4554.4063,190.2031 C4554.8906,190.4844 4555.0625,190.7031 4555.1563,191.1094 C4555.2188,191.5156 4555.25,191.6406 4555.3906,191.7656 C4555.5313,191.9063 4555.7656,192.0156 4555.9844,192.0156 C4556.25,192.0156 4556.5156,191.875 4556.6875,191.6563 C4556.7969,191.5 4556.8281,191.3125 4556.8281,190.8906 L4556.8281,189.4688 C4556.8281,189.0313 4556.8125,188.9063 4556.7188,188.75 C4556.5625,188.4844 4556.2813,188.3438 4555.9844,188.3438 C4555.6875,188.3438 4555.4844,188.4375 4555.2656,188.75 L4555.0938,188.6719 Z " fill="#000000"/><ellipse cx="4578.25" cy="192.5" fill="#84BE84" rx="3" ry="3" style="stroke:#038048;stroke-width:1.0;"/><text fill="#000000" font-family="sans-serif" font-size="12" lengthAdjust="spacingAndGlyphs" textLength="151" x="4584.25" y="197.1543">BoolToVisibilityConverter</text><line style="stroke:#A80036;stroke-width:1.5;" x1="4370.5" x2="4905.5" y1="209" y2="209"/><ellipse cx="4380.5" cy="236.8047" fill="#84BE84" rx="3" ry="3" style="stroke:#038048;stroke-width:1.0;"/><text fill="#000000" font-family="sans-serif" font-size="11" lengthAdjust="spacingAndGlyphs" textLength="484" x="4389.5" y="240.0151">object Convert(object value, Type targetType, object parameter, CultureInfo culture)</text><text fill="#000000" font-family="sans-serif" font-size="11" lengthAdjust="spacingAndGlyphs" textLength="0" x="4393.5" y="252.8198"/><ellipse cx="4380.5" cy="262.4141" fill="#84BE84" rx="3" ry="3" style="stroke:#038048;stroke-width:1.0;"/><text fill="#000000" font-family="sans-serif" font-size="11" lengthAdjust="spacingAndGlyphs" textLength="511" x="4389.5" y="265.6245">object ConvertBack(object value, Type targetType, object parameter, CultureInfo culture)</text><text fill="#000000" font-family="sans-serif" font-size="11" lengthAdjust="spacingAndGlyphs" textLength="0" x="4393.5" y="278.4292"/><line style="stroke:#A80036;stroke-width:1.0;stroke-dasharray:1.0,2.0;" x1="4370.5" x2="4614" y1="223.4023" y2="223.4023"/><text fill="#000000" font-family="sans-serif" font-size="11" lengthAdjust="spacingAndGlyphs" textLength="48" x="4614" y="226.7104">Methods</text><line style="stroke:#A80036;stroke-width:1.0;stroke-dasharray:1.0,2.0;" x1="4662" x2="4905.5" y1="223.4023" y2="223.4023"/><!--MD5=[128e1da92f07780780ab20545471205d]
class WPFLibrary.ValueConverters.EnumToStringConverter--><rect codeLine="40" fill="#FEFECE" filter="url(#f1jfo51yuf5029)" height="133.6328" id="WPFLibrary.ValueConverters.EnumToStringConverter" style="stroke:#A80036;stroke-width:1.5;" width="661" x="3673.5" y="164"/><ellipse cx="3923.25" cy="180" fill="#ADD1B2" rx="11" ry="11" style="stroke:#A80036;stroke-width:1.0;"/><path d="M3925.5938,175.6719 C3924.6563,175.2344 3924.0625,175.0938 3923.1875,175.0938 C3920.5625,175.0938 3918.5625,177.1719 3918.5625,179.8906 L3918.5625,181.0156 C3918.5625,183.5938 3920.6719,185.4844 3923.5625,185.4844 C3924.7813,185.4844 3925.9375,185.1875 3926.6875,184.6406 C3927.2656,184.2344 3927.5938,183.7813 3927.5938,183.3906 C3927.5938,182.9375 3927.2031,182.5469 3926.7344,182.5469 C3926.5156,182.5469 3926.3125,182.625 3926.125,182.8125 C3925.6719,183.2969 3925.6719,183.2969 3925.4844,183.3906 C3925.0625,183.6563 3924.375,183.7813 3923.6094,183.7813 C3921.5625,183.7813 3920.2656,182.6875 3920.2656,180.9844 L3920.2656,179.8906 C3920.2656,178.1094 3921.5156,176.7969 3923.25,176.7969 C3923.8281,176.7969 3924.4375,176.9531 3924.9063,177.2031 C3925.3906,177.4844 3925.5625,177.7031 3925.6563,178.1094 C3925.7188,178.5156 3925.75,178.6406 3925.8906,178.7656 C3926.0313,178.9063 3926.2656,179.0156 3926.4844,179.0156 C3926.75,179.0156 3927.0156,178.875 3927.1875,178.6563 C3927.2969,178.5 3927.3281,178.3125 3927.3281,177.8906 L3927.3281,176.4688 C3927.3281,176.0313 3927.3125,175.9063 3927.2188,175.75 C3927.0625,175.4844 3926.7813,175.3438 3926.4844,175.3438 C3926.1875,175.3438 3925.9844,175.4375 3925.7656,175.75 L3925.5938,175.6719 Z " fill="#000000"/><ellipse cx="3948.75" cy="179.5" fill="#84BE84" rx="3" ry="3" style="stroke:#038048;stroke-width:1.0;"/><text fill="#000000" font-family="sans-serif" font-size="12" lengthAdjust="spacingAndGlyphs" textLength="142" x="3954.75" y="184.1543">EnumToStringConverter</text><line style="stroke:#A80036;stroke-width:1.5;" x1="3674.5" x2="4333.5" y1="196" y2="196"/><ellipse cx="3684.5" cy="223.8047" fill="#84BE84" rx="3" ry="3" style="stroke:#038048;stroke-width:1.0;"/><text fill="#000000" font-family="sans-serif" font-size="11" lengthAdjust="spacingAndGlyphs" textLength="608" x="3693.5" y="227.0151">object Convert(object value, Type targetType, object parameter, System.Globalization.CultureInfo culture)</text><text fill="#000000" font-family="sans-serif" font-size="11" lengthAdjust="spacingAndGlyphs" textLength="0" x="3697.5" y="239.8198"/><ellipse cx="3684.5" cy="249.4141" fill="#84BE84" rx="3" ry="3" style="stroke:#038048;stroke-width:1.0;"/><text fill="#000000" font-family="sans-serif" font-size="11" lengthAdjust="spacingAndGlyphs" textLength="635" x="3693.5" y="252.6245">object ConvertBack(object value, Type targetType, object parameter, System.Globalization.CultureInfo culture)</text><text fill="#000000" font-family="sans-serif" font-size="11" lengthAdjust="spacingAndGlyphs" textLength="0" x="3697.5" y="265.4292"/><ellipse cx="3684.5" cy="275.0234" fill="#84BE84" rx="3" ry="3" style="stroke:#038048;stroke-width:1.0;"/><text fill="#000000" font-family="sans-serif" font-size="11" lengthAdjust="spacingAndGlyphs" textLength="179" x="3693.5" y="278.2339">string GetDescription(Enum en)</text><text fill="#000000" font-family="sans-serif" font-size="11" lengthAdjust="spacingAndGlyphs" textLength="0" x="3697.5" y="291.0386"/><line style="stroke:#A80036;stroke-width:1.0;stroke-dasharray:1.0,2.0;" x1="3674.5" x2="3980" y1="210.4023" y2="210.4023"/><text fill="#000000" font-family="sans-serif" font-size="11" lengthAdjust="spacingAndGlyphs" textLength="48" x="3980" y="213.7104">Methods</text><line style="stroke:#A80036;stroke-width:1.0;stroke-dasharray:1.0,2.0;" x1="4028" x2="4333.5" y1="210.4023" y2="210.4023"/><!--MD5=[ef707e52149db7a271c81329df7f4033]
class WPFLibrary.ValueConverters.IsLastItemInContainerConverter--><rect codeLine="51" fill="#FEFECE" filter="url(#f1jfo51yuf5029)" height="108.0234" id="WPFLibrary.ValueConverters.IsLastItemInContainerConverter" style="stroke:#A80036;stroke-width:1.5;" width="648" x="591" y="177"/><ellipse cx="811.75" cy="193" fill="#ADD1B2" rx="11" ry="11" style="stroke:#A80036;stroke-width:1.0;"/><path d="M814.0938,188.6719 C813.1563,188.2344 812.5625,188.0938 811.6875,188.0938 C809.0625,188.0938 807.0625,190.1719 807.0625,192.8906 L807.0625,194.0156 C807.0625,196.5938 809.1719,198.4844 812.0625,198.4844 C813.2813,198.4844 814.4375,198.1875 815.1875,197.6406 C815.7656,197.2344 816.0938,196.7813 816.0938,196.3906 C816.0938,195.9375 815.7031,195.5469 815.2344,195.5469 C815.0156,195.5469 814.8125,195.625 814.625,195.8125 C814.1719,196.2969 814.1719,196.2969 813.9844,196.3906 C813.5625,196.6563 812.875,196.7813 812.1094,196.7813 C810.0625,196.7813 808.7656,195.6875 808.7656,193.9844 L808.7656,192.8906 C808.7656,191.1094 810.0156,189.7969 811.75,189.7969 C812.3281,189.7969 812.9375,189.9531 813.4063,190.2031 C813.8906,190.4844 814.0625,190.7031 814.1563,191.1094 C814.2188,191.5156 814.25,191.6406 814.3906,191.7656 C814.5313,191.9063 814.7656,192.0156 814.9844,192.0156 C815.25,192.0156 815.5156,191.875 815.6875,191.6563 C815.7969,191.5 815.8281,191.3125 815.8281,190.8906 L815.8281,189.4688 C815.8281,189.0313 815.8125,188.9063 815.7188,188.75 C815.5625,188.4844 815.2813,188.3438 814.9844,188.3438 C814.6875,188.3438 814.4844,188.4375 814.2656,188.75 L814.0938,188.6719 Z " fill="#000000"/><ellipse cx="837.25" cy="192.5" fill="#84BE84" rx="3" ry="3" style="stroke:#038048;stroke-width:1.0;"/><text fill="#000000" font-family="sans-serif" font-size="12" lengthAdjust="spacingAndGlyphs" textLength="187" x="843.25" y="197.1543">IsLastItemInContainerConverter</text><line style="stroke:#A80036;stroke-width:1.5;" x1="592" x2="1238" y1="209" y2="209"/><ellipse cx="602" cy="236.8047" fill="#84BE84" rx="3" ry="3" style="stroke:#038048;stroke-width:1.0;"/><text fill="#000000" font-family="sans-serif" font-size="11" lengthAdjust="spacingAndGlyphs" textLength="622" x="611" y="240.0151">object Convert(object[] values, Type targetType, object parameter, System.Globalization.CultureInfo culture)</text><text fill="#000000" font-family="sans-serif" font-size="11" lengthAdjust="spacingAndGlyphs" textLength="0" x="615" y="252.8198"/><ellipse cx="602" cy="262.4141" fill="#84BE84" rx="3" ry="3" style="stroke:#038048;stroke-width:1.0;"/><text fill="#000000" font-family="sans-serif" font-size="11" lengthAdjust="spacingAndGlyphs" textLength="610" x="611" y="265.6245">ConvertBack(object value, Type[] targetTypes, object parameter, System.Globalization.CultureInfo culture)</text><text fill="#000000" font-family="sans-serif" font-size="11" lengthAdjust="spacingAndGlyphs" textLength="0" x="615" y="278.4292"/><line style="stroke:#A80036;stroke-width:1.0;stroke-dasharray:1.0,2.0;" x1="592" x2="891" y1="223.4023" y2="223.4023"/><text fill="#000000" font-family="sans-serif" font-size="11" lengthAdjust="spacingAndGlyphs" textLength="48" x="891" y="226.7104">Methods</text><line style="stroke:#A80036;stroke-width:1.0;stroke-dasharray:1.0,2.0;" x1="939" x2="1238" y1="223.4023" y2="223.4023"/><!--MD5=[4201c7ee5fe984d38354d366643df8f1]
class WPFLibrary.ValueConverters.ReverseBoolConverter--><rect codeLine="60" fill="#FEFECE" filter="url(#f1jfo51yuf5029)" height="108.0234" id="WPFLibrary.ValueConverters.ReverseBoolConverter" style="stroke:#A80036;stroke-width:1.5;" width="537" x="3101.5" y="177"/><ellipse cx="3291.75" cy="193" fill="#ADD1B2" rx="11" ry="11" style="stroke:#A80036;stroke-width:1.0;"/><path d="M3294.0938,188.6719 C3293.1563,188.2344 3292.5625,188.0938 3291.6875,188.0938 C3289.0625,188.0938 3287.0625,190.1719 3287.0625,192.8906 L3287.0625,194.0156 C3287.0625,196.5938 3289.1719,198.4844 3292.0625,198.4844 C3293.2813,198.4844 3294.4375,198.1875 3295.1875,197.6406 C3295.7656,197.2344 3296.0938,196.7813 3296.0938,196.3906 C3296.0938,195.9375 3295.7031,195.5469 3295.2344,195.5469 C3295.0156,195.5469 3294.8125,195.625 3294.625,195.8125 C3294.1719,196.2969 3294.1719,196.2969 3293.9844,196.3906 C3293.5625,196.6563 3292.875,196.7813 3292.1094,196.7813 C3290.0625,196.7813 3288.7656,195.6875 3288.7656,193.9844 L3288.7656,192.8906 C3288.7656,191.1094 3290.0156,189.7969 3291.75,189.7969 C3292.3281,189.7969 3292.9375,189.9531 3293.4063,190.2031 C3293.8906,190.4844 3294.0625,190.7031 3294.1563,191.1094 C3294.2188,191.5156 3294.25,191.6406 3294.3906,191.7656 C3294.5313,191.9063 3294.7656,192.0156 3294.9844,192.0156 C3295.25,192.0156 3295.5156,191.875 3295.6875,191.6563 C3295.7969,191.5 3295.8281,191.3125 3295.8281,190.8906 L3295.8281,189.4688 C3295.8281,189.0313 3295.8125,188.9063 3295.7188,188.75 C3295.5625,188.4844 3295.2813,188.3438 3294.9844,188.3438 C3294.6875,188.3438 3294.4844,188.4375 3294.2656,188.75 L3294.0938,188.6719 Z " fill="#000000"/><ellipse cx="3317.25" cy="192.5" fill="#84BE84" rx="3" ry="3" style="stroke:#038048;stroke-width:1.0;"/><text fill="#000000" font-family="sans-serif" font-size="12" lengthAdjust="spacingAndGlyphs" textLength="137" x="3323.25" y="197.1543">ReverseBoolConverter</text><line style="stroke:#A80036;stroke-width:1.5;" x1="3102.5" x2="3637.5" y1="209" y2="209"/><ellipse cx="3112.5" cy="236.8047" fill="#84BE84" rx="3" ry="3" style="stroke:#038048;stroke-width:1.0;"/><text fill="#000000" font-family="sans-serif" font-size="11" lengthAdjust="spacingAndGlyphs" textLength="484" x="3121.5" y="240.0151">object Convert(object value, Type targetType, object parameter, CultureInfo culture)</text><text fill="#000000" font-family="sans-serif" font-size="11" lengthAdjust="spacingAndGlyphs" textLength="0" x="3125.5" y="252.8198"/><ellipse cx="3112.5" cy="262.4141" fill="#84BE84" rx="3" ry="3" style="stroke:#038048;stroke-width:1.0;"/><text fill="#000000" font-family="sans-serif" font-size="11" lengthAdjust="spacingAndGlyphs" textLength="511" x="3121.5" y="265.6245">object ConvertBack(object value, Type targetType, object parameter, CultureInfo culture)</text><text fill="#000000" font-family="sans-serif" font-size="11" lengthAdjust="spacingAndGlyphs" textLength="0" x="3125.5" y="278.4292"/><line style="stroke:#A80036;stroke-width:1.0;stroke-dasharray:1.0,2.0;" x1="3102.5" x2="3346" y1="223.4023" y2="223.4023"/><text fill="#000000" font-family="sans-serif" font-size="11" lengthAdjust="spacingAndGlyphs" textLength="48" x="3346" y="226.7104">Methods</text><line style="stroke:#A80036;stroke-width:1.0;stroke-dasharray:1.0,2.0;" x1="3394" x2="3637.5" y1="223.4023" y2="223.4023"/><!--MD5=[53db157065404afe2c27180fa7a55380]
class WPFLibrary.ValueConverters.TwoIntsToBoolConverter--><rect codeLine="69" fill="#FEFECE" filter="url(#f1jfo51yuf5029)" height="108.0234" id="WPFLibrary.ValueConverters.TwoIntsToBoolConverter" style="stroke:#A80036;stroke-width:1.5;" width="524" x="32" y="177"/><ellipse cx="210.25" cy="193" fill="#ADD1B2" rx="11" ry="11" style="stroke:#A80036;stroke-width:1.0;"/><path d="M212.5938,188.6719 C211.6563,188.2344 211.0625,188.0938 210.1875,188.0938 C207.5625,188.0938 205.5625,190.1719 205.5625,192.8906 L205.5625,194.0156 C205.5625,196.5938 207.6719,198.4844 210.5625,198.4844 C211.7813,198.4844 212.9375,198.1875 213.6875,197.6406 C214.2656,197.2344 214.5938,196.7813 214.5938,196.3906 C214.5938,195.9375 214.2031,195.5469 213.7344,195.5469 C213.5156,195.5469 213.3125,195.625 213.125,195.8125 C212.6719,196.2969 212.6719,196.2969 212.4844,196.3906 C212.0625,196.6563 211.375,196.7813 210.6094,196.7813 C208.5625,196.7813 207.2656,195.6875 207.2656,193.9844 L207.2656,192.8906 C207.2656,191.1094 208.5156,189.7969 210.25,189.7969 C210.8281,189.7969 211.4375,189.9531 211.9063,190.2031 C212.3906,190.4844 212.5625,190.7031 212.6563,191.1094 C212.7188,191.5156 212.75,191.6406 212.8906,191.7656 C213.0313,191.9063 213.2656,192.0156 213.4844,192.0156 C213.75,192.0156 214.0156,191.875 214.1875,191.6563 C214.2969,191.5 214.3281,191.3125 214.3281,190.8906 L214.3281,189.4688 C214.3281,189.0313 214.3125,188.9063 214.2188,188.75 C214.0625,188.4844 213.7813,188.3438 213.4844,188.3438 C213.1875,188.3438 212.9844,188.4375 212.7656,188.75 L212.5938,188.6719 Z " fill="#000000"/><ellipse cx="235.75" cy="192.5" fill="#84BE84" rx="3" ry="3" style="stroke:#038048;stroke-width:1.0;"/><text fill="#000000" font-family="sans-serif" font-size="12" lengthAdjust="spacingAndGlyphs" textLength="148" x="241.75" y="197.1543">TwoIntsToBoolConverter</text><line style="stroke:#A80036;stroke-width:1.5;" x1="33" x2="555" y1="209" y2="209"/><ellipse cx="43" cy="236.8047" fill="#84BE84" rx="3" ry="3" style="stroke:#038048;stroke-width:1.0;"/><text fill="#000000" font-family="sans-serif" font-size="11" lengthAdjust="spacingAndGlyphs" textLength="498" x="52" y="240.0151">object Convert(object[] values, Type targetType, object parameter, CultureInfo culture)</text><text fill="#000000" font-family="sans-serif" font-size="11" lengthAdjust="spacingAndGlyphs" textLength="0" x="56" y="252.8198"/><ellipse cx="43" cy="262.4141" fill="#84BE84" rx="3" ry="3" style="stroke:#038048;stroke-width:1.0;"/><text fill="#000000" font-family="sans-serif" font-size="11" lengthAdjust="spacingAndGlyphs" textLength="486" x="52" y="265.6245">ConvertBack(object value, Type[] targetTypes, object parameter, CultureInfo culture)</text><text fill="#000000" font-family="sans-serif" font-size="11" lengthAdjust="spacingAndGlyphs" textLength="0" x="56" y="278.4292"/><line style="stroke:#A80036;stroke-width:1.0;stroke-dasharray:1.0,2.0;" x1="33" x2="270" y1="223.4023" y2="223.4023"/><text fill="#000000" font-family="sans-serif" font-size="11" lengthAdjust="spacingAndGlyphs" textLength="48" x="270" y="226.7104">Methods</text><line style="stroke:#A80036;stroke-width:1.0;stroke-dasharray:1.0,2.0;" x1="318" x2="555" y1="223.4023" y2="223.4023"/><!--MD5=[451224a06e71a0a8ef8928893190b5d0]
class ___Common___.IMultiValueConverter--><rect fill="#FEFECE" filter="url(#f1jfo51yuf5029)" height="48" id="___Common___.IMultiValueConverter" style="stroke:#A80036;stroke-width:1.5;" width="157" x="2224.5" y="41"/><ellipse cx="2239.5" cy="57" fill="#B4A7E5" rx="11" ry="11" style="stroke:#A80036;stroke-width:1.0;"/><path d="M2240.4531,53.7813 L2242.1719,53.7813 C2242.5625,53.7813 2242.75,53.75 2242.875,53.6719 C2243.1406,53.5156 2243.2813,53.2344 2243.2813,52.9375 C2243.2813,52.6719 2243.1719,52.4063 2242.9375,52.2344 C2242.7656,52.125 2242.625,52.0938 2242.1719,52.0938 L2237.0313,52.0938 C2236.5938,52.0938 2236.4688,52.1094 2236.3125,52.2031 C2236.0625,52.3594 2235.9063,52.6563 2235.9063,52.9375 C2235.9063,53.2188 2236.0469,53.4688 2236.2656,53.6406 C2236.4219,53.75 2236.6094,53.7813 2237.0313,53.7813 L2238.75,53.7813 L2238.75,60.2969 L2237.0313,60.2969 C2236.5938,60.2969 2236.4688,60.3125 2236.3125,60.4219 C2236.0625,60.5781 2235.9063,60.8594 2235.9063,61.1563 C2235.9063,61.4063 2236.0469,61.6719 2236.2656,61.8281 C2236.4219,61.9531 2236.625,62 2237.0313,62 L2242.1719,62 C2242.9219,62 2243.2813,61.7188 2243.2813,61.1563 C2243.2813,60.875 2243.1719,60.625 2242.9375,60.4531 C2242.7656,60.3281 2242.625,60.2969 2242.1719,60.2969 L2240.4531,60.2969 L2240.4531,53.7813 Z " fill="#000000"/><text fill="#000000" font-family="sans-serif" font-size="12" font-style="italic" lengthAdjust="spacingAndGlyphs" textLength="125" x="2253.5" y="61.1543">IMultiValueConverter</text><line style="stroke:#A80036;stroke-width:1.5;" x1="2225.5" x2="2380.5" y1="73" y2="73"/><line style="stroke:#A80036;stroke-width:1.5;" x1="2225.5" x2="2380.5" y1="81" y2="81"/><!--MD5=[9ede59b9c299ab1c5455b369faf454db]
class ___Common___.IValueConverter--><rect fill="#FEFECE" filter="url(#f1jfo51yuf5029)" height="48" id="___Common___.IValueConverter" style="stroke:#A80036;stroke-width:1.5;" width="128" x="2417" y="41"/><ellipse cx="2432" cy="57" fill="#B4A7E5" rx="11" ry="11" style="stroke:#A80036;stroke-width:1.0;"/><path d="M2432.9531,53.7813 L2434.6719,53.7813 C2435.0625,53.7813 2435.25,53.75 2435.375,53.6719 C2435.6406,53.5156 2435.7813,53.2344 2435.7813,52.9375 C2435.7813,52.6719 2435.6719,52.4063 2435.4375,52.2344 C2435.2656,52.125 2435.125,52.0938 2434.6719,52.0938 L2429.5313,52.0938 C2429.0938,52.0938 2428.9688,52.1094 2428.8125,52.2031 C2428.5625,52.3594 2428.4063,52.6563 2428.4063,52.9375 C2428.4063,53.2188 2428.5469,53.4688 2428.7656,53.6406 C2428.9219,53.75 2429.1094,53.7813 2429.5313,53.7813 L2431.25,53.7813 L2431.25,60.2969 L2429.5313,60.2969 C2429.0938,60.2969 2428.9688,60.3125 2428.8125,60.4219 C2428.5625,60.5781 2428.4063,60.8594 2428.4063,61.1563 C2428.4063,61.4063 2428.5469,61.6719 2428.7656,61.8281 C2428.9219,61.9531 2429.125,62 2429.5313,62 L2434.6719,62 C2435.4219,62 2435.7813,61.7188 2435.7813,61.1563 C2435.7813,60.875 2435.6719,60.625 2435.4375,60.4531 C2435.2656,60.3281 2435.125,60.2969 2434.6719,60.2969 L2432.9531,60.2969 L2432.9531,53.7813 Z " fill="#000000"/><text fill="#000000" font-family="sans-serif" font-size="12" font-style="italic" lengthAdjust="spacingAndGlyphs" textLength="96" x="2446" y="61.1543">IValueConverter</text><line style="stroke:#A80036;stroke-width:1.5;" x1="2418" x2="2544" y1="73" y2="73"/><line style="stroke:#A80036;stroke-width:1.5;" x1="2418" x2="2544" y1="81" y2="81"/><!--MD5=[3eeb9058181119ee20991f4ab3121ad2]
reverse link ___Common___.IMultiValueConverter to WPFLibrary.ValueConverters.MultiValueEqualityConverter--><path d="M2204.32,69.666 C2105,75.094 1948.02,88.434 1816,121 C1760.8,134.618 1701.84,156.4 1652.34,176.925 " fill="none" id="___Common___.IMultiValueConverter-backto-WPFLibrary.ValueConverters.MultiValueEqualityConverter" style="stroke:#A80036;stroke-width:1.0;stroke-dasharray:7.0,7.0;"/><polygon fill="none" points="2203.97,62.675,2224.31,68.639,2204.69,76.657,2203.97,62.675" style="stroke:#A80036;stroke-width:1.0;"/><!--MD5=[0a285c03509aada62bfd5b5545afade8]
reverse link ___Common___.IValueConverter to WPFLibrary.ValueConverters.BitmapToBitmapImageConverter--><path d="M2543.57,98.368 C2586.8,120.736 2645.3,151.003 2695.31,176.873 " fill="none" id="___Common___.IValueConverter-backto-WPFLibrary.ValueConverters.BitmapToBitmapImageConverter" style="stroke:#A80036;stroke-width:1.0;stroke-dasharray:7.0,7.0;"/><polygon fill="none" points="2540.29,104.557,2525.75,89.149,2546.73,92.122,2540.29,104.557" style="stroke:#A80036;stroke-width:1.0;"/><!--MD5=[19af81db2ca44be705537e87b3fe9457]
reverse link ___Common___.IValueConverter to WPFLibrary.ValueConverters.BoolToVisibilityCollapsedConverter--><path d="M2424.26,99.091 C2415.84,103.839 2407.22,108.601 2399,113 C2358.51,134.659 2313.49,157.391 2273.78,176.998 " fill="none" id="___Common___.IValueConverter-backto-WPFLibrary.ValueConverters.BoolToVisibilityCollapsedConverter" style="stroke:#A80036;stroke-width:1.0;stroke-dasharray:7.0,7.0;"/><polygon fill="none" points="2420.8,93.009,2441.64,89.182,2427.73,105.17,2420.8,93.009" style="stroke:#A80036;stroke-width:1.0;"/><!--MD5=[01849ab49fe6b90640aaa2a660a465f9]
reverse link ___Common___.IValueConverter to WPFLibrary.ValueConverters.BoolToVisibilityConverter--><path d="M2565.35,66.823 C2906.7,70.38 4175.73,85.863 4352,121 C4410.89,132.738 4473.51,155.351 4525.1,176.952 " fill="none" id="___Common___.IValueConverter-backto-WPFLibrary.ValueConverters.BoolToVisibilityConverter" style="stroke:#A80036;stroke-width:1.0;stroke-dasharray:7.0,7.0;"/><polygon fill="none" points="2565.08,73.821,2545.15,66.615,2565.22,59.821,2565.08,73.821" style="stroke:#A80036;stroke-width:1.0;"/><!--MD5=[1cd73aab9c0bfc6c41416582decd721d]
reverse link ___Common___.IValueConverter to WPFLibrary.ValueConverters.EnumToStringConverter--><path d="M2565.37,67.141 C2798.19,70.737 3446.27,83.883 3656,121 C3711.48,130.819 3770.45,146.985 3823.77,163.898 " fill="none" id="___Common___.IValueConverter-backto-WPFLibrary.ValueConverters.EnumToStringConverter" style="stroke:#A80036;stroke-width:1.0;stroke-dasharray:7.0,7.0;"/><polygon fill="none" points="2565.02,74.137,2545.13,66.837,2565.23,60.138,2565.02,74.137" style="stroke:#A80036;stroke-width:1.0;"/><!--MD5=[0c9a123583eb9b8699aa1c6144c2b171]
reverse link ___Common___.IMultiValueConverter to WPFLibrary.ValueConverters.IsLastItemInContainerConverter--><path d="M2204.12,67.974 C1979.6,72.979 1436.87,88.169 1257,121 C1188.65,133.476 1114.96,155.762 1053.55,176.945 " fill="none" id="___Common___.IMultiValueConverter-backto-WPFLibrary.ValueConverters.IsLastItemInContainerConverter" style="stroke:#A80036;stroke-width:1.0;stroke-dasharray:7.0,7.0;"/><polygon fill="none" points="2204.05,60.974,2224.2,67.535,2204.36,74.971,2204.05,60.974" style="stroke:#A80036;stroke-width:1.0;"/><!--MD5=[13aaf2e6d58daf410bf8251c55c26e97]
reverse link ___Common___.IValueConverter to WPFLibrary.ValueConverters.ReverseBoolConverter--><path d="M2565.34,66.475 C2682.99,68.762 2902.37,78.943 3084,121 C3140.94,134.185 3201.76,156.164 3252.6,176.946 " fill="none" id="___Common___.IValueConverter-backto-WPFLibrary.ValueConverters.ReverseBoolConverter" style="stroke:#A80036;stroke-width:1.0;stroke-dasharray:7.0,7.0;"/><polygon fill="none" points="2565.16,73.473,2545.28,66.144,2565.39,59.475,2565.16,73.473" style="stroke:#A80036;stroke-width:1.0;"/><!--MD5=[75e756c2a3e55cf03b177cabfb9dfeef]
reverse link ___Common___.IMultiValueConverter to WPFLibrary.ValueConverters.TwoIntsToBoolConverter--><path d="M2204.24,67.192 C1861.18,71.602 733.362,88.444 574,121 C516.375,132.772 455.195,155.319 404.77,176.865 " fill="none" id="___Common___.IMultiValueConverter-backto-WPFLibrary.ValueConverters.TwoIntsToBoolConverter" style="stroke:#A80036;stroke-width:1.0;stroke-dasharray:7.0,7.0;"/><polygon fill="none" points="2204.18,60.192,2224.27,66.937,2204.36,74.191,2204.18,60.192" style="stroke:#A80036;stroke-width:1.0;"/><!--MD5=[397650b34ecea6b3ac5fae79d43618af]
@startuml

namespace WPFLibrary.ValueConverters {
	class MultiValueEqualityConverter implements ___Common___.IMultiValueConverter
	+class MultiValueEqualityConverter {
	.. Methods ..
		+object Convert(object[] values, Type targetType, object parameter, CultureInfo culture)

		+ ConvertBack(object value, Type[] targetTypes, object parameter, CultureInfo culture)

	}

	class BitmapToBitmapImageConverter implements ___Common___.IValueConverter
	+class BitmapToBitmapImageConverter {
	.. Methods ..
		+object Convert(object value, Type targetType, object parameter, CultureInfo culture)

		+object ConvertBack(object value, Type targetType, object parameter, CultureInfo culture)

	}

	class BoolToVisibilityCollapsedConverter implements ___Common___.IValueConverter
	+class BoolToVisibilityCollapsedConverter {
	.. Methods ..
		+object Convert(object value, Type targetType, object parameter, System.Globalization.CultureInfo culture)

		+object ConvertBack(object value, Type targetType, object parameter, System.Globalization.CultureInfo culture)

	}

	class BoolToVisibilityConverter implements ___Common___.IValueConverter
	+class BoolToVisibilityConverter {
	.. Methods ..
		+object Convert(object value, Type targetType, object parameter, CultureInfo culture)

		+object ConvertBack(object value, Type targetType, object parameter, CultureInfo culture)

	}

	class EnumToStringConverter implements ___Common___.IValueConverter
	+class EnumToStringConverter {
	.. Methods ..
		+object Convert(object value, Type targetType, object parameter, System.Globalization.CultureInfo culture)

		+object ConvertBack(object value, Type targetType, object parameter, System.Globalization.CultureInfo culture)

		+string GetDescription(Enum en)

	}

	class IsLastItemInContainerConverter implements ___Common___.IMultiValueConverter
	+class IsLastItemInContainerConverter {
	.. Methods ..
		+object Convert(object[] values, Type targetType, object parameter, System.Globalization.CultureInfo culture)

		+ ConvertBack(object value, Type[] targetTypes, object parameter, System.Globalization.CultureInfo culture)

	}

	class ReverseBoolConverter implements ___Common___.IValueConverter
	+class ReverseBoolConverter {
	.. Methods ..
		+object Convert(object value, Type targetType, object parameter, CultureInfo culture)

		+object ConvertBack(object value, Type targetType, object parameter, CultureInfo culture)

	}

	class TwoIntsToBoolConverter implements ___Common___.IMultiValueConverter
	+class TwoIntsToBoolConverter {
	.. Methods ..
		+object Convert(object[] values, Type targetType, object parameter, CultureInfo culture)

		+ ConvertBack(object value, Type[] targetTypes, object parameter, CultureInfo culture)

	}

}
@enduml

PlantUML version 1.2020.27beta3(Unknown compile time)
(GPL source distribution)
Java Runtime: Java(TM) SE Runtime Environment
JVM: Java HotSpot(TM) 64-Bit Server VM
Default Encoding: UTF-8
Language: en
Country: US
--></g></svg>