<?xml version="1.0" encoding="UTF-8" standalone="no"?><svg xmlns="http://www.w3.org/2000/svg" xmlns:xlink="http://www.w3.org/1999/xlink" contentScriptType="application/ecmascript" contentStyleType="text/css" height="431px" preserveAspectRatio="none" style="width:591px;height:431px;" version="1.1" viewBox="0 0 591 431" width="591px" zoomAndPan="magnify"><defs><filter height="300%" id="f1f1xmmfe9qj0i" width="300%" x="-1" y="-1"><feGaussianBlur result="blurOut" stdDeviation="2.0"/><feColorMatrix in="blurOut" result="blurOut2" type="matrix" values="0 0 0 0 0 0 0 0 0 0 0 0 0 0 0 0 0 0 .4 0"/><feOffset dx="4.0" dy="4.0" in="blurOut2" result="blurOut3"/><feBlend in="SourceGraphic" in2="blurOut3" mode="normal"/></filter></defs><g><!--MD5=[5ef5cd0c21e0af618c591c9c2760abcf]
cluster WPFLibrary.Commands--><polygon fill="#FFFFFF" filter="url(#f1f1xmmfe9qj0i)" points="16,129,207,129,214,151.2969,574,151.2969,574,424,16,424,16,129" style="stroke:#000000;stroke-width:1.5;"/><line style="stroke:#000000;stroke-width:1.5;" x1="16" x2="214" y1="151.2969" y2="151.2969"/><text fill="#000000" font-family="sans-serif" font-size="14" font-weight="bold" lengthAdjust="spacingAndGlyphs" textLength="185" x="20" y="143.9951">WPFLibrary.Commands</text><!--MD5=[8c44c800f3ba61fb2ed1a48dad095105]
cluster ___Common___--><polygon fill="#FFFFFF" filter="url(#f1f1xmmfe9qj0i)" points="230,6,320,6,327,28.2969,360,28.2969,360,105,230,105,230,6" style="stroke:#000000;stroke-width:1.5;"/><line style="stroke:#000000;stroke-width:1.5;" x1="230" x2="327" y1="28.2969" y2="28.2969"/><text fill="#000000" font-family="sans-serif" font-size="14" font-weight="bold" lengthAdjust="spacingAndGlyphs" text-decoration="underline" textLength="77" x="234" y="20.9951">_Common</text><text fill="#000000" font-family="sans-serif" font-size="14" font-weight="bold" lengthAdjust="spacingAndGlyphs" textLength="7" x="311" y="20.9951">_</text><!--MD5=[54ad17ad8b225e28206e59ec6ebef713]
class WPFLibrary.Commands.RelayCommand--><rect codeLine="4" fill="#FEFECE" filter="url(#f1f1xmmfe9qj0i)" height="244.0703" id="WPFLibrary.Commands.RelayCommand" style="stroke:#A80036;stroke-width:1.5;" width="526" x="32" y="164"/><ellipse cx="239.25" cy="180" fill="#ADD1B2" rx="11" ry="11" style="stroke:#A80036;stroke-width:1.0;"/><path d="M241.5938,175.6719 C240.6563,175.2344 240.0625,175.0938 239.1875,175.0938 C236.5625,175.0938 234.5625,177.1719 234.5625,179.8906 L234.5625,181.0156 C234.5625,183.5938 236.6719,185.4844 239.5625,185.4844 C240.7813,185.4844 241.9375,185.1875 242.6875,184.6406 C243.2656,184.2344 243.5938,183.7813 243.5938,183.3906 C243.5938,182.9375 243.2031,182.5469 242.7344,182.5469 C242.5156,182.5469 242.3125,182.625 242.125,182.8125 C241.6719,183.2969 241.6719,183.2969 241.4844,183.3906 C241.0625,183.6563 240.375,183.7813 239.6094,183.7813 C237.5625,183.7813 236.2656,182.6875 236.2656,180.9844 L236.2656,179.8906 C236.2656,178.1094 237.5156,176.7969 239.25,176.7969 C239.8281,176.7969 240.4375,176.9531 240.9063,177.2031 C241.3906,177.4844 241.5625,177.7031 241.6563,178.1094 C241.7188,178.5156 241.75,178.6406 241.8906,178.7656 C242.0313,178.9063 242.2656,179.0156 242.4844,179.0156 C242.75,179.0156 243.0156,178.875 243.1875,178.6563 C243.2969,178.5 243.3281,178.3125 243.3281,177.8906 L243.3281,176.4688 C243.3281,176.0313 243.3125,175.9063 243.2188,175.75 C243.0625,175.4844 242.7813,175.3438 242.4844,175.3438 C242.1875,175.3438 241.9844,175.4375 241.7656,175.75 L241.5938,175.6719 Z " fill="#000000"/><ellipse cx="264.75" cy="179.5" fill="#84BE84" rx="3" ry="3" style="stroke:#038048;stroke-width:1.0;"/><text fill="#000000" font-family="sans-serif" font-size="12" lengthAdjust="spacingAndGlyphs" textLength="92" x="270.75" y="184.1543">RelayCommand</text><line style="stroke:#A80036;stroke-width:1.5;" x1="33" x2="557" y1="196" y2="196"/><ellipse cx="43" cy="223.8047" fill="#84BE84" rx="3" ry="3" style="stroke:#038048;stroke-width:1.0;"/><text fill="#000000" font-family="sans-serif" font-size="11" lengthAdjust="spacingAndGlyphs" textLength="500" x="52" y="227.0151">public RelayCommand(Action&lt;object&gt; execute, Func&lt;object, bool&gt; canExecute = null)</text><text fill="#000000" font-family="sans-serif" font-size="11" lengthAdjust="spacingAndGlyphs" textLength="0" x="56" y="239.8198"/><ellipse cx="43" cy="249.4141" fill="#84BE84" rx="3" ry="3" style="stroke:#038048;stroke-width:1.0;"/><text fill="#000000" font-family="sans-serif" font-size="11" lengthAdjust="spacingAndGlyphs" textLength="204" x="52" y="252.6245">bool CanExecute(object parameter)</text><text fill="#000000" font-family="sans-serif" font-size="11" lengthAdjust="spacingAndGlyphs" textLength="0" x="56" y="265.4292"/><ellipse cx="43" cy="275.0234" fill="#84BE84" rx="3" ry="3" style="stroke:#038048;stroke-width:1.0;"/><text fill="#000000" font-family="sans-serif" font-size="11" lengthAdjust="spacingAndGlyphs" textLength="182" x="52" y="278.2339">void Execute(object parameter)</text><text fill="#000000" font-family="sans-serif" font-size="11" lengthAdjust="spacingAndGlyphs" textLength="0" x="56" y="291.0386"/><line style="stroke:#A80036;stroke-width:1.0;stroke-dasharray:1.0,2.0;" x1="33" x2="271" y1="210.4023" y2="210.4023"/><text fill="#000000" font-family="sans-serif" font-size="11" lengthAdjust="spacingAndGlyphs" textLength="48" x="271" y="213.7104">Methods</text><line style="stroke:#A80036;stroke-width:1.0;stroke-dasharray:1.0,2.0;" x1="319" x2="557" y1="210.4023" y2="210.4023"/><ellipse cx="43" cy="317.4375" fill="none" rx="3" ry="3" style="stroke:#038048;stroke-width:1.0;"/><text fill="#000000" font-family="sans-serif" font-size="11" lengthAdjust="spacingAndGlyphs" textLength="208" x="52" y="320.6479">CanExecuteChanged : EventHandler</text><text fill="#000000" font-family="sans-serif" font-size="11" lengthAdjust="spacingAndGlyphs" textLength="0" x="56" y="333.4526"/><line style="stroke:#A80036;stroke-width:1.0;stroke-dasharray:1.0,2.0;" x1="33" x2="266.5" y1="304.0352" y2="304.0352"/><text fill="#000000" font-family="sans-serif" font-size="11" lengthAdjust="spacingAndGlyphs" textLength="57" x="266.5" y="307.3433">Properties</text><line style="stroke:#A80036;stroke-width:1.0;stroke-dasharray:1.0,2.0;" x1="323.5" x2="557" y1="304.0352" y2="304.0352"/><rect fill="none" height="6" style="stroke:#C82930;stroke-width:1.0;" width="6" x="40" y="356.8516"/><text fill="#000000" font-family="sans-serif" font-size="11" lengthAdjust="spacingAndGlyphs" textLength="147" x="52" y="363.062">execute : Action&lt;object&gt;</text><text fill="#000000" font-family="sans-serif" font-size="11" lengthAdjust="spacingAndGlyphs" textLength="0" x="56" y="375.8667"/><rect fill="none" height="6" style="stroke:#C82930;stroke-width:1.0;" width="6" x="40" y="382.4609"/><text fill="#000000" font-family="sans-serif" font-size="11" lengthAdjust="spacingAndGlyphs" textLength="188" x="52" y="388.6714">canExecute : Func&lt;object, bool&gt;</text><text fill="#000000" font-family="sans-serif" font-size="11" lengthAdjust="spacingAndGlyphs" textLength="0" x="56" y="401.4761"/><line style="stroke:#A80036;stroke-width:1.0;stroke-dasharray:1.0,2.0;" x1="33" x2="278.5" y1="346.4492" y2="346.4492"/><text fill="#000000" font-family="sans-serif" font-size="11" lengthAdjust="spacingAndGlyphs" textLength="33" x="278.5" y="349.7573">Fields</text><line style="stroke:#A80036;stroke-width:1.0;stroke-dasharray:1.0,2.0;" x1="311.5" x2="557" y1="346.4492" y2="346.4492"/><!--MD5=[a24852cae7a53644f89c38b59e29ee2e]
class ___Common___.ICommand--><rect fill="#FEFECE" filter="url(#f1f1xmmfe9qj0i)" height="48" id="___Common___.ICommand" style="stroke:#A80036;stroke-width:1.5;" width="98" x="246" y="41"/><ellipse cx="261" cy="57" fill="#B4A7E5" rx="11" ry="11" style="stroke:#A80036;stroke-width:1.0;"/><path d="M261.9531,53.7813 L263.6719,53.7813 C264.0625,53.7813 264.25,53.75 264.375,53.6719 C264.6406,53.5156 264.7813,53.2344 264.7813,52.9375 C264.7813,52.6719 264.6719,52.4063 264.4375,52.2344 C264.2656,52.125 264.125,52.0938 263.6719,52.0938 L258.5313,52.0938 C258.0938,52.0938 257.9688,52.1094 257.8125,52.2031 C257.5625,52.3594 257.4063,52.6563 257.4063,52.9375 C257.4063,53.2188 257.5469,53.4688 257.7656,53.6406 C257.9219,53.75 258.1094,53.7813 258.5313,53.7813 L260.25,53.7813 L260.25,60.2969 L258.5313,60.2969 C258.0938,60.2969 257.9688,60.3125 257.8125,60.4219 C257.5625,60.5781 257.4063,60.8594 257.4063,61.1563 C257.4063,61.4063 257.5469,61.6719 257.7656,61.8281 C257.9219,61.9531 258.125,62 258.5313,62 L263.6719,62 C264.4219,62 264.7813,61.7188 264.7813,61.1563 C264.7813,60.875 264.6719,60.625 264.4375,60.4531 C264.2656,60.3281 264.125,60.2969 263.6719,60.2969 L261.9531,60.2969 L261.9531,53.7813 Z " fill="#000000"/><text fill="#000000" font-family="sans-serif" font-size="12" font-style="italic" lengthAdjust="spacingAndGlyphs" textLength="66" x="275" y="61.1543">ICommand</text><line style="stroke:#A80036;stroke-width:1.5;" x1="247" x2="343" y1="73" y2="73"/><line style="stroke:#A80036;stroke-width:1.5;" x1="247" x2="343" y1="81" y2="81"/><!--MD5=[507bd002fe8f3a77ca7ea999a044ba31]
reverse link ___Common___.ICommand to WPFLibrary.Commands.RelayCommand--><path d="M295,109.119 C295,125.193 295,144.332 295,163.971 " fill="none" id="___Common___.ICommand-backto-WPFLibrary.Commands.RelayCommand" style="stroke:#A80036;stroke-width:1.0;stroke-dasharray:7.0,7.0;"/><polygon fill="none" points="288,109.023,295,89.023,302,109.023,288,109.023" style="stroke:#A80036;stroke-width:1.0;"/><!--MD5=[3d827cf61632af219d8058f4c82c27ec]
@startuml

namespace WPFLibrary.Commands {
	class RelayCommand implements ___Common___.ICommand
	+class RelayCommand {
	.. Methods ..
		+public RelayCommand(Action<object> execute, Func<object, bool> canExecute = null)

		+bool CanExecute(object parameter)

		+void Execute(object parameter)

	.. Properties ..
		+CanExecuteChanged : EventHandler

	.. Fields ..
		-execute : Action<object>

		-canExecute : Func<object, bool>

	}

}
@enduml

PlantUML version 1.2020.27beta3(Unknown compile time)
(GPL source distribution)
Java Runtime: Java(TM) SE Runtime Environment
JVM: Java HotSpot(TM) 64-Bit Server VM
Default Encoding: UTF-8
Language: en
Country: US
--></g></svg>