<?xml version="1.0" encoding="UTF-8" standalone="no"?><svg xmlns="http://www.w3.org/2000/svg" xmlns:xlink="http://www.w3.org/1999/xlink" contentScriptType="application/ecmascript" contentStyleType="text/css" height="363px" preserveAspectRatio="none" style="width:613px;height:363px;" version="1.1" viewBox="0 0 613 363" width="613px" zoomAndPan="magnify"><defs><filter height="300%" id="f1uw92tiesh1ek" width="300%" x="-1" y="-1"><feGaussianBlur result="blurOut" stdDeviation="2.0"/><feColorMatrix in="blurOut" result="blurOut2" type="matrix" values="0 0 0 0 0 0 0 0 0 0 0 0 0 0 0 0 0 0 .4 0"/><feOffset dx="4.0" dy="4.0" in="blurOut2" result="blurOut3"/><feBlend in="SourceGraphic" in2="blurOut3" mode="normal"/></filter></defs><g><!--MD5=[386d914da4dea9f2e206a4f68802834b]
cluster WPFLibrary.CustomAttachedProperties--><polygon fill="#FFFFFF" filter="url(#f1uw92tiesh1ek)" points="16,129,339,129,346,151.2969,596,151.2969,596,356,16,356,16,129" style="stroke:#000000;stroke-width:1.5;"/><line style="stroke:#000000;stroke-width:1.5;" x1="16" x2="346" y1="151.2969" y2="151.2969"/><text fill="#000000" font-family="sans-serif" font-size="14" font-weight="bold" lengthAdjust="spacingAndGlyphs" textLength="317" x="20" y="143.9951">WPFLibrary.CustomAttachedProperties</text><!--MD5=[8c44c800f3ba61fb2ed1a48dad095105]
cluster ___Common___--><polygon fill="#FFFFFF" filter="url(#f1uw92tiesh1ek)" points="215,6,305,6,312,28.2969,397,28.2969,397,105,215,105,215,6" style="stroke:#000000;stroke-width:1.5;"/><line style="stroke:#000000;stroke-width:1.5;" x1="215" x2="312" y1="28.2969" y2="28.2969"/><text fill="#000000" font-family="sans-serif" font-size="14" font-weight="bold" lengthAdjust="spacingAndGlyphs" text-decoration="underline" textLength="77" x="219" y="20.9951">_Common</text><text fill="#000000" font-family="sans-serif" font-size="14" font-weight="bold" lengthAdjust="spacingAndGlyphs" textLength="7" x="296" y="20.9951">_</text><!--MD5=[f3f586d680d4f8cc67a0dc030128c441]
class WPFLibrary.CustomAttachedProperties.DraggableAttachedProperty--><rect codeLine="4" fill="#FEFECE" filter="url(#f1uw92tiesh1ek)" height="176.0469" id="WPFLibrary.CustomAttachedProperties.DraggableAttachedProperty" style="stroke:#A80036;stroke-width:1.5;" width="547" x="32.5" y="164"/><ellipse cx="212.75" cy="180" fill="#ADD1B2" rx="11" ry="11" style="stroke:#A80036;stroke-width:1.0;"/><path d="M215.0938,175.6719 C214.1563,175.2344 213.5625,175.0938 212.6875,175.0938 C210.0625,175.0938 208.0625,177.1719 208.0625,179.8906 L208.0625,181.0156 C208.0625,183.5938 210.1719,185.4844 213.0625,185.4844 C214.2813,185.4844 215.4375,185.1875 216.1875,184.6406 C216.7656,184.2344 217.0938,183.7813 217.0938,183.3906 C217.0938,182.9375 216.7031,182.5469 216.2344,182.5469 C216.0156,182.5469 215.8125,182.625 215.625,182.8125 C215.1719,183.2969 215.1719,183.2969 214.9844,183.3906 C214.5625,183.6563 213.875,183.7813 213.1094,183.7813 C211.0625,183.7813 209.7656,182.6875 209.7656,180.9844 L209.7656,179.8906 C209.7656,178.1094 211.0156,176.7969 212.75,176.7969 C213.3281,176.7969 213.9375,176.9531 214.4063,177.2031 C214.8906,177.4844 215.0625,177.7031 215.1563,178.1094 C215.2188,178.5156 215.25,178.6406 215.3906,178.7656 C215.5313,178.9063 215.7656,179.0156 215.9844,179.0156 C216.25,179.0156 216.5156,178.875 216.6875,178.6563 C216.7969,178.5 216.8281,178.3125 216.8281,177.8906 L216.8281,176.4688 C216.8281,176.0313 216.8125,175.9063 216.7188,175.75 C216.5625,175.4844 216.2813,175.3438 215.9844,175.3438 C215.6875,175.3438 215.4844,175.4375 215.2656,175.75 L215.0938,175.6719 Z " fill="#000000"/><ellipse cx="238.25" cy="179.5" fill="#84BE84" rx="3" ry="3" style="stroke:#038048;stroke-width:1.0;"/><text fill="#000000" font-family="sans-serif" font-size="12" lengthAdjust="spacingAndGlyphs" textLength="167" x="244.25" y="184.1543">DraggableAttachedProperty</text><line style="stroke:#A80036;stroke-width:1.5;" x1="33.5" x2="578.5" y1="196" y2="196"/><ellipse cx="43.5" cy="223.8047" fill="#84BE84" rx="3" ry="3" style="stroke:#038048;stroke-width:1.0;"/><text fill="#000000" font-family="sans-serif" font-size="11" lengthAdjust="spacingAndGlyphs" textLength="335" x="52.5" y="227.0151">void SetIsBlockDragging(DependencyObject d, bool value)</text><text fill="#000000" font-family="sans-serif" font-size="11" lengthAdjust="spacingAndGlyphs" textLength="0" x="56.5" y="239.8198"/><ellipse cx="43.5" cy="249.4141" fill="#84BE84" rx="3" ry="3" style="stroke:#038048;stroke-width:1.0;"/><text fill="#000000" font-family="sans-serif" font-size="11" lengthAdjust="spacingAndGlyphs" textLength="269" x="52.5" y="252.6245">bool GetIsBlockDragging(DependencyObject d)</text><text fill="#000000" font-family="sans-serif" font-size="11" lengthAdjust="spacingAndGlyphs" textLength="0" x="56.5" y="265.4292"/><rect fill="#F24D5C" height="6" style="stroke:#C82930;stroke-width:1.0;" width="6" x="40.5" y="272.0234"/><text fill="#000000" font-family="sans-serif" font-size="11" lengthAdjust="spacingAndGlyphs" textLength="521" x="52.5" y="278.2339">void OnPropertyChanged(DependencyObject d, DependencyPropertyChangedEventArgs e)</text><text fill="#000000" font-family="sans-serif" font-size="11" lengthAdjust="spacingAndGlyphs" textLength="0" x="56.5" y="291.0386"/><line style="stroke:#A80036;stroke-width:1.0;stroke-dasharray:1.0,2.0;" x1="33.5" x2="282" y1="210.4023" y2="210.4023"/><text fill="#000000" font-family="sans-serif" font-size="11" lengthAdjust="spacingAndGlyphs" textLength="48" x="282" y="213.7104">Methods</text><line style="stroke:#A80036;stroke-width:1.0;stroke-dasharray:1.0,2.0;" x1="330" x2="578.5" y1="210.4023" y2="210.4023"/><ellipse cx="43.5" cy="317.4375" fill="none" rx="3" ry="3" style="stroke:#038048;stroke-width:1.0;"/><text fill="#000000" font-family="sans-serif" font-size="11" lengthAdjust="spacingAndGlyphs" textLength="269" x="52.5" y="320.6479">IsBlockDraggingProperty : DependencyProperty</text><text fill="#000000" font-family="sans-serif" font-size="11" lengthAdjust="spacingAndGlyphs" textLength="0" x="56.5" y="333.4526"/><line style="stroke:#A80036;stroke-width:1.0;stroke-dasharray:1.0,2.0;" x1="33.5" x2="289.5" y1="304.0352" y2="304.0352"/><text fill="#000000" font-family="sans-serif" font-size="11" lengthAdjust="spacingAndGlyphs" textLength="33" x="289.5" y="307.3433">Fields</text><line style="stroke:#A80036;stroke-width:1.0;stroke-dasharray:1.0,2.0;" x1="322.5" x2="578.5" y1="304.0352" y2="304.0352"/><!--MD5=[652a7e3a67c832b5ac74e7eed2be006e]
class ___Common___.DependencyObject--><rect fill="#FEFECE" filter="url(#f1uw92tiesh1ek)" height="48" id="___Common___.DependencyObject" style="stroke:#A80036;stroke-width:1.5;" width="149" x="231.5" y="41"/><ellipse cx="246.5" cy="57" fill="#ADD1B2" rx="11" ry="11" style="stroke:#A80036;stroke-width:1.0;"/><path d="M248.8438,52.6719 C247.9063,52.2344 247.3125,52.0938 246.4375,52.0938 C243.8125,52.0938 241.8125,54.1719 241.8125,56.8906 L241.8125,58.0156 C241.8125,60.5938 243.9219,62.4844 246.8125,62.4844 C248.0313,62.4844 249.1875,62.1875 249.9375,61.6406 C250.5156,61.2344 250.8438,60.7813 250.8438,60.3906 C250.8438,59.9375 250.4531,59.5469 249.9844,59.5469 C249.7656,59.5469 249.5625,59.625 249.375,59.8125 C248.9219,60.2969 248.9219,60.2969 248.7344,60.3906 C248.3125,60.6563 247.625,60.7813 246.8594,60.7813 C244.8125,60.7813 243.5156,59.6875 243.5156,57.9844 L243.5156,56.8906 C243.5156,55.1094 244.7656,53.7969 246.5,53.7969 C247.0781,53.7969 247.6875,53.9531 248.1563,54.2031 C248.6406,54.4844 248.8125,54.7031 248.9063,55.1094 C248.9688,55.5156 249,55.6406 249.1406,55.7656 C249.2813,55.9063 249.5156,56.0156 249.7344,56.0156 C250,56.0156 250.2656,55.875 250.4375,55.6563 C250.5469,55.5 250.5781,55.3125 250.5781,54.8906 L250.5781,53.4688 C250.5781,53.0313 250.5625,52.9063 250.4688,52.75 C250.3125,52.4844 250.0313,52.3438 249.7344,52.3438 C249.4375,52.3438 249.2344,52.4375 249.0156,52.75 L248.8438,52.6719 Z " fill="#000000"/><text fill="#000000" font-family="sans-serif" font-size="12" lengthAdjust="spacingAndGlyphs" textLength="117" x="260.5" y="61.1543">DependencyObject</text><line style="stroke:#A80036;stroke-width:1.5;" x1="232.5" x2="379.5" y1="73" y2="73"/><line style="stroke:#A80036;stroke-width:1.5;" x1="232.5" x2="379.5" y1="81" y2="81"/><!--MD5=[967994595154d05a4289c55b02c5f71d]
reverse link ___Common___.DependencyObject to WPFLibrary.CustomAttachedProperties.DraggableAttachedProperty--><path d="M306,109.249 C306,125.593 306,144.834 306,163.778 " fill="none" id="___Common___.DependencyObject-backto-WPFLibrary.CustomAttachedProperties.DraggableAttachedProperty" style="stroke:#A80036;stroke-width:1.0;"/><polygon fill="none" points="299,109.056,306,89.056,313,109.056,299,109.056" style="stroke:#A80036;stroke-width:1.0;"/><!--MD5=[9314edd6c282aaf180150577f3b4426e]
@startuml

namespace WPFLibrary.CustomAttachedProperties {
	class DraggableAttachedProperty extends ___Common___.DependencyObject
	+class DraggableAttachedProperty {
	.. Methods ..
		+void SetIsBlockDragging(DependencyObject d, bool value)

		+bool GetIsBlockDragging(DependencyObject d)

		-void OnPropertyChanged(DependencyObject d, DependencyPropertyChangedEventArgs e)

	.. Fields ..
		+IsBlockDraggingProperty : DependencyProperty

	}

}
@enduml

PlantUML version 1.2020.27beta3(Unknown compile time)
(GPL source distribution)
Java Runtime: Java(TM) SE Runtime Environment
JVM: Java HotSpot(TM) 64-Bit Server VM
Default Encoding: UTF-8
Language: en
Country: US
--></g></svg>